<?xml version="1.0" standalone="no"?>
<!DOCTYPE svg PUBLIC "-//W3C//DTD SVG 20010904//EN"
 "http://www.w3.org/TR/2001/REC-SVG-20010904/DTD/svg10.dtd">
<svg version="1.0" xmlns="http://www.w3.org/2000/svg"
 width="759.000000pt" height="424.000000pt" viewBox="0 0 759.000000 424.000000"
 preserveAspectRatio="xMidYMid meet">
<metadata>
Created by potrace 1.16, written by Peter Selinger 2001-2019
</metadata>
<g transform="translate(0.000000,424.000000) scale(0.100000,-0.100000)"
fill="#000000" stroke="none">
<path d="M0 2120 l0 -2120 3795 0 3795 0 0 2120 0 2120 -3795 0 -3795 0 0
-2120z m4703 1203 l207 -276 0 -275 0 -275 -162 215 c-90 117 -221 291 -293
386 l-130 172 -319 0 -319 0 -281 -277 c-154 -152 -282 -280 -284 -285 -2 -4
78 -113 179 -243 l182 -235 76 0 76 0 173 156 c95 85 177 154 182 152 5 -2 57
-56 114 -121 l105 -119 -220 -197 -221 -198 -216 -5 c-119 -3 -221 -4 -227 -1
-8 4 -591 750 -639 819 -15 20 2 39 424 453 l439 431 473 -1 473 0 208 -276z
m-118 -647 c176 -228 320 -420 320 -428 0 -7 -196 -205 -435 -441 l-435 -427
-470 0 -470 1 -213 281 -212 281 0 275 0 275 73 -95 c39 -52 173 -228 297
-391 l225 -297 315 0 315 0 289 283 289 282 -184 238 -184 237 -77 0 -77 0
-173 -155 c-95 -85 -176 -154 -180 -152 -4 1 -55 55 -113 121 -103 114 -106
119 -88 136 10 9 109 98 219 198 l202 181 103 4 c57 1 158 4 224 5 l120 2 320
-414z m-1185 -1986 l0 -230 -55 0 c-30 0 -55 4 -55 9 0 6 -12 3 -27 -5 -64
-33 -162 2 -196 70 -49 96 -22 201 63 244 45 23 101 26 143 8 15 -7 17 -1 17
63 l0 71 55 0 55 0 0 -230z m1310 0 l0 -230 -50 0 -50 0 0 230 0 230 50 0 50
0 0 -230z m200 150 c0 -39 1 -40 35 -40 35 0 35 0 35 -45 0 -45 0 -45 -35 -45
l-35 0 0 -75 c0 -79 11 -98 51 -88 17 5 19 -1 19 -40 l0 -46 -44 -6 c-53 -8
-95 9 -113 45 -8 15 -13 63 -13 118 l0 92 -26 0 c-23 0 -25 3 -22 43 2 35 7
43 26 45 18 3 22 10 22 43 l0 39 50 0 50 0 0 -40z m-2358 -65 c14 -11 31 -28
37 -38 10 -15 6 -20 -24 -34 -30 -14 -40 -15 -73 -4 -49 17 -78 8 -97 -29 -20
-39 -19 -62 5 -92 24 -32 59 -39 100 -22 26 11 36 11 65 -3 19 -9 35 -20 35
-23 0 -18 -61 -60 -101 -71 -153 -41 -277 127 -192 259 38 58 92 84 163 80 35
-3 66 -11 82 -23z m341 11 c18 -7 45 -27 59 -44 79 -95 53 -224 -57 -273 -54
-25 -102 -24 -155 4 -130 65 -128 248 4 308 49 22 104 24 149 5z m817 -7 c49
-28 80 -83 80 -143 l0 -46 -115 0 c-92 0 -113 -3 -109 -14 12 -30 95 -47 133
-26 14 7 24 3 46 -20 28 -29 28 -30 9 -45 -51 -39 -140 -45 -204 -12 -100 50
-131 177 -63 258 56 66 154 87 223 48z m378 7 c15 -8 38 -25 51 -39 l23 -26
-39 -19 c-34 -18 -42 -18 -63 -6 -38 21 -68 17 -95 -12 -63 -68 7 -170 89
-129 28 15 34 14 68 -1 21 -9 38 -20 38 -25 0 -14 -60 -57 -95 -69 -84 -28
-188 24 -216 107 -16 48 -7 124 19 161 44 61 157 91 220 58z m222 -96 c0 -98
2 -112 21 -131 24 -24 54 -18 87 17 20 23 22 35 22 125 l0 99 50 0 50 0 0
-170 0 -170 -50 0 c-44 0 -50 3 -50 20 0 20 -1 20 -31 -2 -41 -30 -117 -32
-149 -3 -40 35 -50 76 -50 205 l0 120 50 0 50 0 0 -110z m920 95 c16 -9 37
-29 45 -45 l15 -29 -41 -11 c-35 -10 -44 -9 -60 6 -20 18 -53 12 -47 -8 3 -7
29 -22 58 -34 64 -26 100 -64 100 -105 0 -44 -15 -66 -60 -89 -73 -37 -165
-18 -195 40 -19 36 -20 34 23 48 29 10 37 9 63 -10 23 -17 34 -20 46 -12 31
19 23 29 -45 61 -71 33 -92 58 -92 112 0 15 6 35 13 44 33 44 122 60 177 32z"/>
<path d="M3170 685 c-66 -70 18 -184 92 -126 65 51 31 151 -51 151 -10 0 -28
-11 -41 -25z"/>
<path d="M2771 686 c-66 -70 17 -185 91 -127 65 51 31 151 -51 151 -10 0 -28
-11 -40 -24z"/>
</g>
</svg>
