<?xml version="1.0" standalone="no"?>
<!DOCTYPE svg PUBLIC "-//W3C//DTD SVG 20010904//EN"
 "http://www.w3.org/TR/2001/REC-SVG-20010904/DTD/svg10.dtd">
<svg version="1.0" xmlns="http://www.w3.org/2000/svg"
 width="742.000000pt" height="386.000000pt" viewBox="0 0 742.000000 386.000000"
 preserveAspectRatio="xMidYMid meet">
<metadata>
Created by potrace 1.16, written by Peter Selinger 2001-2019
</metadata>
<g transform="translate(0.000000,386.000000) scale(0.100000,-0.100000)"
fill="#000000" stroke="none">
<path d="M0 1930 l0 -1930 3710 0 3710 0 0 1930 0 1930 -3710 0 -3710 0 0
-1930z m3213 347 l137 -181 0 -178 c0 -98 -2 -178 -4 -178 -1 0 -88 112 -192
250 l-189 249 -215 1 -215 0 -187 -187 c-104 -104 -184 -191 -181 -197 4 -6
58 -77 121 -158 l115 -148 49 0 c49 0 51 2 166 106 l117 105 73 -78 c39 -43
72 -81 72 -84 0 -4 -66 -66 -147 -138 l-147 -131 -145 0 -146 0 -218 278 -217
277 292 287 293 287 315 0 315 0 138 -182z m-78 -429 c116 -149 211 -275 213
-282 1 -6 -128 -138 -287 -293 l-289 -283 -314 0 -314 0 -142 187 -142 186 0
181 c1 144 3 178 13 166 7 -9 95 -125 196 -258 l185 -242 213 0 213 0 190 188
191 187 -123 157 -123 157 -49 1 c-48 0 -50 -2 -168 -106 -65 -59 -121 -105
-123 -103 -2 2 -35 40 -73 83 l-69 79 149 133 148 134 148 0 147 -1 210 -271z
m2507 154 c19 -19 19 -455 0 -474 -19 -19 -2155 -19 -2174 0 -10 10 -14 65
-16 210 -4 226 0 259 31 272 13 5 481 8 1084 7 856 -2 1065 -5 1075 -15z"/>
<path d="M3475 1987 c-3 -7 -4 -111 -3 -232 l3 -220 1080 0 1080 0 0 230 0
230 -1078 3 c-867 2 -1079 0 -1082 -11z m815 -221 l0 -153 -81 0 c-74 0 -84 2
-112 26 -23 22 -31 38 -34 78 -3 28 0 59 6 71 17 32 68 54 112 50 l39 -4 0 43
c0 42 0 43 35 43 l35 0 0 -154z m878 2 l-3 -153 -32 -3 -33 -3 0 155 0 156 35
0 36 0 -3 -152z m132 97 c0 -20 5 -25 25 -25 21 0 25 -5 25 -30 0 -25 -4 -30
-25 -30 -23 0 -25 -3 -25 -49 0 -48 17 -70 41 -55 5 3 9 -8 9 -25 0 -24 -5
-32 -25 -37 -65 -16 -95 22 -95 117 0 37 -4 49 -15 49 -10 0 -15 10 -15 30 0
20 5 30 15 30 9 0 15 9 15 25 0 22 4 25 35 25 31 0 35 -3 35 -25z m-1562 -45
c12 -12 22 -25 22 -29 0 -14 -45 -22 -81 -14 -25 5 -35 2 -46 -12 -34 -48 11
-110 63 -86 18 8 31 8 45 1 27 -15 24 -27 -13 -50 -84 -51 -178 7 -178 108 0
33 32 79 64 92 40 16 101 11 124 -10z m252 -8 c16 -16 32 -46 36 -67 24 -128
-164 -189 -220 -71 -20 42 -20 69 -1 106 20 38 59 59 113 60 35 0 49 -6 72
-28z m528 6 c23 -26 42 -69 42 -99 0 -17 -8 -19 -75 -19 -42 0 -75 -4 -75 -10
0 -13 45 -23 73 -16 14 3 32 -1 43 -9 18 -13 18 -15 3 -31 -25 -24 -99 -30
-138 -9 -58 30 -79 119 -40 169 27 34 52 45 105 45 30 1 46 -5 62 -21z m256 1
c37 -29 20 -44 -47 -44 -44 0 -53 -3 -63 -23 -16 -33 -7 -58 27 -72 22 -9 32
-10 43 -1 17 14 69 -3 64 -22 -8 -24 -71 -48 -112 -43 -56 7 -88 42 -94 105
-4 47 -2 53 31 86 30 30 42 35 80 35 30 0 53 -7 71 -21z m126 -53 c0 -79 13
-103 48 -92 27 9 42 48 42 111 l0 55 35 0 36 0 -3 -112 -3 -113 -32 -3 c-25
-2 -33 1 -33 12 0 14 -4 14 -35 -1 -77 -37 -125 19 -125 145 l0 72 35 0 35 0
0 -74z m630 54 c11 -11 20 -24 20 -29 0 -14 -52 -23 -63 -12 -15 15 -27 14
-27 -3 0 -8 11 -16 23 -20 77 -19 102 -91 45 -126 -46 -28 -93 -26 -123 5 -14
13 -25 28 -25 33 0 15 51 25 63 13 13 -13 47 -15 47 -3 0 5 -18 17 -41 27 -44
20 -59 40 -59 79 0 52 98 78 140 36z"/>
</g>
</svg>
