<svg
  id="svg"
  version="1.1"
  xmlns="http://www.w3.org/2000/svg"
  xmlns:xlink="http://www.w3.org/1999/xlink"
  width="400"
  height="185.61484918793505"
  viewBox="0, 0, 400,185.61484918793505"
><g id="svgg"><path
      id="path0"
      d="M182.224 36.990 C 173.102 46.126,168.643 50.487,168.427 50.487 C 168.332 50.487,164.246 54.505,159.348 59.416 C 154.449 64.326,150.109 68.649,149.704 69.021 C 149.299 69.394,148.282 70.346,147.444 71.137 C 146.606 71.928,145.831 72.575,145.721 72.575 C 145.309 72.575,145.549 73.016,146.340 73.713 C 146.790 74.109,147.367 74.787,147.623 75.221 C 147.880 75.655,148.389 76.297,148.755 76.649 C 149.121 77.001,149.420 77.368,149.420 77.465 C 149.420 77.562,149.775 78.036,150.209 78.519 C 150.643 79.002,151.165 79.651,151.369 79.961 C 152.073 81.028,152.856 82.072,153.635 82.981 C 154.064 83.482,154.516 84.081,154.639 84.313 C 154.761 84.544,155.009 84.838,155.188 84.965 C 155.368 85.093,155.702 85.510,155.930 85.893 C 156.158 86.276,156.678 86.938,157.084 87.365 C 157.491 87.792,158.000 88.428,158.216 88.779 C 158.887 89.872,159.691 90.932,160.492 91.781 C 160.915 92.230,161.453 92.937,161.686 93.352 C 161.919 93.767,162.167 94.107,162.236 94.107 C 162.306 94.107,162.603 94.462,162.896 94.896 C 163.190 95.329,163.702 95.977,164.036 96.334 C 164.722 97.070,165.469 98.043,166.385 99.397 C 166.730 99.907,167.239 100.534,167.515 100.789 C 167.791 101.044,168.145 101.503,168.302 101.810 C 168.459 102.116,168.874 102.701,169.223 103.109 C 171.039 105.230,171.694 106.064,171.694 106.259 C 171.694 106.377,171.953 106.719,172.269 107.019 C 172.586 107.318,173.102 107.940,173.416 108.399 C 173.731 108.858,174.223 109.480,174.511 109.780 C 174.799 110.080,175.035 110.419,175.035 110.533 C 175.035 110.647,175.405 111.138,175.858 111.624 C 176.801 112.636,177.485 113.839,177.338 114.224 C 177.282 114.369,177.339 114.550,177.464 114.627 C 177.609 114.717,177.643 114.690,177.558 114.553 C 177.459 114.392,179.921 114.339,187.454 114.339 C 197.291 114.339,197.485 114.332,197.680 113.968 C 197.809 113.726,198.068 113.596,198.422 113.596 C 199.170 113.596,200.297 112.827,201.981 111.168 C 202.764 110.396,203.804 109.478,204.293 109.128 C 204.782 108.778,205.937 107.733,206.860 106.805 C 207.783 105.877,208.956 104.801,209.466 104.414 C 209.976 104.027,211.145 102.999,212.064 102.129 C 212.983 101.260,213.967 100.406,214.251 100.231 C 214.534 100.057,215.668 99.033,216.770 97.956 C 217.872 96.879,219.020 95.844,219.320 95.655 C 220.836 94.707,221.521 93.921,220.831 93.921 C 220.587 93.921,217.793 91.161,217.335 90.467 C 217.193 90.252,216.336 89.292,215.431 88.333 C 214.526 87.374,213.598 86.297,213.369 85.939 C 213.141 85.581,212.377 84.673,211.672 83.921 L 210.390 82.553 208.536 84.245 C 207.516 85.176,206.590 85.938,206.477 85.939 C 206.364 85.939,205.642 86.629,204.873 87.471 C 204.104 88.313,203.039 89.336,202.506 89.745 C 201.973 90.153,200.584 91.384,199.420 92.479 C 198.256 93.575,197.075 94.593,196.796 94.743 C 196.516 94.892,195.622 95.693,194.809 96.523 C 193.435 97.924,193.288 98.023,192.735 97.919 C 192.402 97.857,192.088 97.892,192.022 97.999 C 191.948 98.119,190.662 98.190,188.582 98.190 L 185.259 98.190 184.741 97.516 C 184.456 97.145,183.868 96.433,183.434 95.932 C 183.000 95.432,182.645 94.917,182.645 94.788 C 182.645 94.659,182.304 94.223,181.887 93.820 C 181.470 93.416,180.998 92.835,180.838 92.529 C 180.556 91.990,180.078 91.380,178.422 89.447 C 177.988 88.940,177.633 88.438,177.633 88.330 C 177.633 88.222,177.216 87.665,176.705 87.092 C 176.195 86.520,175.777 85.963,175.777 85.856 C 175.777 85.749,175.443 85.337,175.035 84.941 C 174.626 84.545,174.292 84.125,174.292 84.008 C 174.292 83.890,174.015 83.504,173.676 83.150 C 173.336 82.796,172.721 82.046,172.308 81.485 C 171.895 80.923,171.379 80.305,171.162 80.110 C 170.944 79.916,170.766 79.648,170.766 79.515 C 170.766 79.382,170.432 78.932,170.023 78.515 C 169.615 78.098,169.281 77.698,169.281 77.625 C 169.281 77.551,168.902 77.033,168.440 76.472 C 167.572 75.420,167.053 74.549,167.053 74.141 C 167.053 73.864,192.833 48.260,193.112 48.260 C 193.218 48.260,193.692 47.878,194.166 47.412 L 195.026 46.565 210.624 46.583 C 222.645 46.597,226.337 46.549,226.725 46.372 C 227.272 46.122,228.467 47.204,229.122 48.541 C 229.273 48.849,229.616 49.308,229.885 49.560 C 230.155 49.813,230.551 50.334,230.767 50.718 C 230.982 51.101,231.216 51.415,231.285 51.415 C 231.354 51.415,231.651 51.770,231.943 52.204 C 232.236 52.638,232.790 53.360,233.175 53.808 C 233.560 54.256,233.875 54.720,233.875 54.838 C 233.875 54.956,234.209 55.379,234.617 55.777 C 235.026 56.176,235.360 56.580,235.360 56.676 C 235.360 56.771,235.694 57.212,236.102 57.655 C 236.510 58.098,236.845 58.567,236.846 58.697 C 236.847 58.826,237.140 59.299,237.496 59.748 C 237.852 60.196,238.144 60.633,238.144 60.718 C 238.144 60.804,238.516 61.217,238.971 61.636 C 239.426 62.056,240.014 62.767,240.278 63.218 C 240.542 63.668,240.836 64.037,240.932 64.037 C 241.028 64.037,241.269 64.356,241.468 64.746 C 241.666 65.135,241.974 65.574,242.152 65.720 C 242.329 65.866,242.756 66.404,243.100 66.914 C 244.013 68.267,245.044 69.649,245.522 70.158 C 245.752 70.403,245.940 70.671,245.940 70.752 C 245.940 70.834,246.357 71.362,246.868 71.926 C 247.378 72.489,247.798 73.054,247.802 73.181 C 247.805 73.307,248.097 73.699,248.450 74.050 C 248.804 74.402,249.147 74.862,249.213 75.071 C 249.279 75.281,249.613 75.718,249.956 76.043 C 250.299 76.368,250.580 76.718,250.580 76.821 C 250.580 76.924,250.998 77.486,251.508 78.069 C 252.019 78.652,252.436 79.226,252.436 79.345 C 252.436 79.463,252.694 79.805,253.010 80.104 C 253.325 80.404,253.699 80.871,253.841 81.143 C 253.982 81.414,254.246 81.783,254.427 81.963 C 255.428 82.958,256.142 84.147,255.914 84.439 C 255.711 84.699,255.722 84.704,256.009 84.478 C 256.412 84.163,256.525 57.541,256.124 57.541 C 255.910 57.541,254.292 55.896,254.292 55.678 C 254.292 55.611,253.875 55.121,253.364 54.589 C 252.854 54.056,252.436 53.534,252.436 53.428 C 252.436 53.322,252.102 52.856,251.694 52.392 C 251.285 51.928,250.951 51.465,250.951 51.364 C 250.951 51.262,250.638 50.817,250.255 50.375 C 249.113 49.057,248.466 48.233,248.098 47.626 C 247.907 47.311,247.426 46.700,247.031 46.269 C 246.635 45.837,246.311 45.372,246.311 45.236 C 246.311 45.100,246.055 44.743,245.741 44.443 C 245.428 44.143,245.051 43.644,244.903 43.333 C 244.755 43.022,244.385 42.494,244.080 42.161 C 243.776 41.828,243.527 41.476,243.527 41.380 C 243.527 41.284,243.197 40.908,242.795 40.544 C 242.392 40.181,241.852 39.522,241.593 39.082 C 241.335 38.641,241.000 38.233,240.850 38.175 C 240.699 38.117,240.434 37.794,240.261 37.457 C 240.087 37.120,239.624 36.478,239.230 36.030 C 238.837 35.581,238.515 35.137,238.515 35.042 C 238.515 34.947,238.181 34.473,237.773 33.989 C 237.364 33.505,237.030 33.026,237.030 32.925 C 237.030 32.824,236.730 32.453,236.364 32.101 C 235.998 31.750,235.574 31.157,235.423 30.784 C 235.037 29.832,236.548 29.889,211.830 29.887 L 189.320 29.884 182.224 36.990 M203.852 55.081 C 205.153 55.113,207.283 55.113,208.585 55.081 C 209.886 55.049,208.821 55.023,206.218 55.023 C 203.615 55.023,202.550 55.049,203.852 55.081 M200.695 57.462 C 199.648 58.526,198.687 59.398,198.560 59.400 C 198.433 59.402,197.578 60.164,196.659 61.093 C 195.740 62.022,194.487 63.143,193.875 63.583 C 193.262 64.023,192.246 64.958,191.617 65.661 C 190.987 66.364,190.079 67.226,189.598 67.576 C 189.116 67.927,187.762 69.119,186.587 70.226 C 185.413 71.333,184.208 72.388,183.910 72.569 C 183.612 72.751,182.754 73.468,182.004 74.163 L 180.641 75.428 182.061 76.845 C 182.841 77.624,183.647 78.500,183.852 78.791 C 184.056 79.083,185.162 80.321,186.311 81.544 C 187.459 82.766,188.399 83.865,188.399 83.984 C 188.399 84.335,190.948 86.682,191.329 86.682 C 191.519 86.682,191.872 86.473,192.111 86.218 C 192.351 85.963,192.614 85.754,192.695 85.754 C 192.777 85.754,193.671 84.919,194.683 83.898 C 195.695 82.877,196.613 82.042,196.724 82.042 C 196.834 82.042,198.026 80.998,199.372 79.722 C 200.718 78.445,201.913 77.401,202.028 77.401 C 202.142 77.401,202.944 76.683,203.809 75.806 C 204.675 74.928,205.800 73.892,206.311 73.503 C 206.821 73.114,207.516 72.538,207.854 72.222 C 208.192 71.906,208.484 71.644,208.503 71.641 C 208.523 71.637,210.229 71.584,212.296 71.524 L 216.054 71.413 216.513 71.948 C 216.766 72.242,217.351 72.924,217.813 73.463 C 218.276 74.003,218.654 74.546,218.654 74.670 C 218.655 74.794,218.971 75.203,219.358 75.578 C 219.746 75.954,220.184 76.497,220.333 76.785 C 220.482 77.073,220.916 77.625,221.299 78.012 C 221.682 78.399,221.995 78.821,221.995 78.952 C 221.995 79.082,222.253 79.433,222.569 79.733 C 222.884 80.033,223.339 80.613,223.580 81.021 C 223.822 81.429,224.357 82.084,224.770 82.475 C 225.184 82.866,225.522 83.308,225.522 83.457 C 225.522 83.606,225.845 84.037,226.240 84.416 C 226.634 84.795,227.086 85.355,227.245 85.661 C 227.403 85.968,227.832 86.506,228.198 86.858 C 228.564 87.210,228.863 87.631,228.863 87.795 C 228.863 87.958,229.203 88.422,229.618 88.825 C 230.033 89.229,230.549 89.872,230.766 90.255 C 230.982 90.638,231.216 90.951,231.285 90.951 C 231.354 90.951,231.649 91.306,231.941 91.740 C 232.232 92.174,232.819 92.913,233.245 93.381 C 234.199 94.430,234.652 95.275,234.498 95.719 C 234.334 96.192,221.708 108.683,220.983 109.088 C 220.798 109.192,217.421 112.501,213.479 116.441 L 206.311 123.605 205.568 123.428 C 205.125 123.321,198.641 123.256,189.450 123.264 L 174.074 123.277 173.474 122.567 C 173.145 122.176,172.618 121.480,172.304 121.021 C 171.990 120.561,171.515 119.983,171.249 119.736 C 170.983 119.488,170.766 119.182,170.766 119.055 C 170.766 118.929,170.434 118.463,170.028 118.021 C 169.623 117.578,169.288 117.129,169.286 117.022 C 169.283 116.915,168.947 116.470,168.538 116.032 C 168.130 115.594,167.795 115.138,167.794 115.019 C 167.793 114.900,167.421 114.427,166.967 113.968 C 166.514 113.508,166.138 113.043,166.134 112.934 C 166.129 112.825,165.828 112.407,165.465 112.006 C 165.101 111.605,164.675 111.035,164.519 110.740 C 164.362 110.445,164.045 110.028,163.816 109.812 C 163.586 109.596,163.197 109.117,162.952 108.748 C 162.207 107.625,160.888 105.918,160.431 105.485 C 160.194 105.260,160.000 104.995,160.000 104.896 C 160.000 104.798,159.624 104.277,159.165 103.739 C 158.705 103.200,158.329 102.668,158.329 102.555 C 158.329 102.442,157.995 102.023,157.587 101.624 C 157.179 101.225,156.845 100.798,156.845 100.674 C 156.845 100.551,156.573 100.169,156.241 99.826 C 155.910 99.483,155.478 98.954,155.282 98.650 C 155.085 98.346,154.626 97.722,154.260 97.262 C 153.894 96.803,153.512 96.294,153.410 96.132 C 152.870 95.271,152.023 94.150,151.323 93.370 C 150.889 92.886,150.534 92.424,150.534 92.343 C 150.534 92.262,150.158 91.794,149.698 91.303 C 149.239 90.812,148.863 90.298,148.863 90.160 C 148.863 90.023,148.577 89.633,148.228 89.295 C 147.879 88.956,147.548 88.500,147.493 88.282 C 147.438 88.063,147.020 87.528,146.564 87.094 C 146.107 86.658,145.681 86.056,145.614 85.749 C 145.238 84.036,145.151 86.401,145.151 98.371 C 145.151 112.954,144.978 111.152,146.545 112.947 C 146.901 113.355,147.192 113.778,147.192 113.886 C 147.193 113.995,147.451 114.329,147.766 114.629 C 148.082 114.929,148.499 115.482,148.692 115.858 C 148.885 116.234,149.199 116.652,149.388 116.786 C 149.577 116.920,149.833 117.219,149.955 117.451 C 150.078 117.682,150.551 118.290,151.006 118.803 C 151.461 119.315,151.833 119.826,151.833 119.939 C 151.833 120.052,152.167 120.507,152.575 120.950 C 152.984 121.393,153.318 121.865,153.318 122.000 C 153.318 122.135,153.652 122.571,154.060 122.970 C 154.469 123.369,154.803 123.788,154.803 123.901 C 154.803 124.014,155.063 124.352,155.381 124.652 C 155.699 124.952,156.168 125.531,156.424 125.940 C 156.680 126.348,157.102 126.910,157.362 127.188 C 157.622 127.467,158.008 127.979,158.221 128.326 C 158.707 129.121,159.687 130.458,160.160 130.973 C 160.358 131.189,160.728 131.690,160.982 132.086 C 161.235 132.483,161.703 133.053,162.021 133.353 C 162.339 133.652,162.599 133.993,162.599 134.109 C 162.599 134.226,162.974 134.730,163.434 135.231 C 163.893 135.731,164.269 136.216,164.269 136.309 C 164.269 136.402,164.603 136.841,165.012 137.284 C 165.420 137.727,165.754 138.203,165.754 138.343 C 165.754 138.483,165.907 138.735,166.094 138.904 C 166.628 139.387,212.212 139.375,212.903 138.892 C 213.154 138.716,214.237 137.660,215.311 136.546 C 216.384 135.431,217.499 134.373,217.788 134.195 C 218.077 134.016,224.378 127.837,231.791 120.464 C 239.204 113.091,245.566 106.869,245.929 106.637 C 246.292 106.405,248.656 104.125,251.181 101.570 C 256.368 96.322,256.113 96.800,254.525 95.311 C 254.091 94.904,253.736 94.486,253.736 94.382 C 253.736 94.278,253.320 93.693,252.812 93.082 C 252.304 92.472,251.887 91.906,251.884 91.826 C 251.881 91.745,251.545 91.332,251.137 90.907 C 250.729 90.482,250.394 90.039,250.394 89.923 C 250.394 89.807,250.057 89.358,249.644 88.924 C 249.232 88.490,248.698 87.829,248.459 87.455 C 248.219 87.081,247.763 86.530,247.446 86.230 C 247.128 85.930,246.868 85.548,246.868 85.380 C 246.868 85.213,246.649 84.874,246.381 84.626 C 246.113 84.379,245.555 83.717,245.140 83.155 C 244.726 82.594,244.193 81.965,243.957 81.757 C 243.720 81.550,243.527 81.279,243.527 81.156 C 243.527 81.033,243.109 80.471,242.599 79.907 C 242.088 79.344,241.671 78.811,241.671 78.725 C 241.671 78.638,241.387 78.267,241.041 77.900 C 240.695 77.533,240.238 76.952,240.026 76.609 C 239.814 76.266,239.461 75.823,239.241 75.626 C 239.022 75.428,238.556 74.849,238.208 74.339 C 236.937 72.479,236.260 71.568,235.631 70.872 C 235.277 70.481,234.988 70.097,234.988 70.017 C 234.988 69.938,234.712 69.583,234.375 69.229 C 234.038 68.875,233.563 68.292,233.320 67.935 C 233.078 67.578,232.560 66.932,232.170 66.501 C 231.781 66.069,231.462 65.605,231.462 65.470 C 231.462 65.334,231.162 64.936,230.796 64.584 C 230.430 64.232,230.000 63.694,229.839 63.387 C 229.679 63.081,229.227 62.549,228.834 62.205 C 228.442 61.861,228.121 61.439,228.121 61.268 C 228.121 61.097,227.780 60.627,227.363 60.223 C 226.946 59.820,226.474 59.239,226.314 58.933 C 226.153 58.626,225.831 58.167,225.599 57.912 C 225.366 57.657,224.894 57.072,224.549 56.613 L 223.923 55.777 217.715 55.748 C 214.301 55.732,209.503 55.676,207.053 55.623 L 202.599 55.528 200.695 57.462 "
      stroke="#000000"
      fill="#000000"
      fill-rule="evenodd"
    />
    <path
      id="path1"
      d="M187.504 29.977 C 187.303 30.232,187.012 30.441,186.857 30.441 C 186.702 30.441,180.935 36.079,174.042 42.970 C 167.149 49.861,161.399 55.501,161.265 55.505 C 161.007 55.511,160.371 55.936,160.371 56.101 C 160.371 56.155,156.914 59.654,152.689 63.877 L 145.007 71.555 145.052 72.761 C 145.102 74.097,145.406 74.816,146.270 75.643 C 146.588 75.946,146.969 76.452,147.118 76.765 C 147.267 77.079,147.679 77.643,148.033 78.019 C 148.388 78.394,148.680 78.806,148.684 78.933 C 148.691 79.191,149.317 80.000,149.509 80.000 C 149.705 80.000,150.162 80.511,150.162 80.729 C 150.162 80.839,150.246 80.928,150.348 80.928 C 150.450 80.928,150.534 81.050,150.534 81.199 C 150.534 81.348,150.868 81.811,151.276 82.227 C 151.684 82.644,152.019 83.149,152.019 83.349 C 152.019 83.549,152.108 83.712,152.217 83.712 C 152.437 83.712,152.947 84.171,152.947 84.368 C 152.947 84.438,153.155 84.658,153.411 84.859 C 153.666 85.060,153.875 85.329,153.875 85.456 C 153.875 85.584,154.292 86.136,154.803 86.682 C 155.313 87.229,155.731 87.793,155.731 87.936 C 155.731 88.247,156.727 89.281,157.027 89.281 C 157.143 89.281,157.186 89.365,157.122 89.468 C 157.059 89.570,157.137 89.705,157.297 89.766 C 157.456 89.827,157.587 90.017,157.587 90.188 C 157.587 90.359,157.879 90.774,158.237 91.111 C 158.594 91.448,158.886 91.855,158.886 92.015 C 158.886 92.175,159.325 92.727,159.861 93.240 C 160.397 93.754,160.846 94.243,160.858 94.326 C 160.871 94.410,160.892 94.541,160.905 94.617 C 160.950 94.882,161.807 95.777,162.017 95.777 C 162.133 95.777,162.227 95.903,162.227 96.056 C 162.227 96.209,162.311 96.334,162.413 96.334 C 162.515 96.334,162.599 96.472,162.599 96.640 C 162.599 96.809,163.016 97.347,163.527 97.836 C 164.051 98.339,164.455 98.892,164.455 99.108 C 164.455 99.323,164.576 99.490,164.733 99.490 C 164.886 99.490,165.012 99.579,165.012 99.688 C 165.012 99.945,165.484 100.418,165.741 100.418 C 165.850 100.418,165.940 100.617,165.940 100.861 C 165.940 101.137,166.289 101.676,166.868 102.292 C 167.378 102.836,167.796 103.375,167.796 103.490 C 167.796 103.605,168.130 104.008,168.538 104.386 C 168.947 104.764,169.281 105.174,169.281 105.298 C 169.281 105.421,169.594 105.828,169.977 106.201 C 171.112 107.308,171.508 107.787,171.512 108.054 C 171.514 108.193,171.806 108.639,172.161 109.047 C 172.517 109.454,172.807 109.888,172.807 110.012 C 172.807 110.136,173.243 110.673,173.776 111.206 C 174.308 111.738,174.761 112.291,174.782 112.433 C 174.830 112.760,176.532 114.329,176.845 114.335 C 177.391 114.344,176.866 113.256,175.681 111.922 C 175.223 111.407,174.849 110.892,174.849 110.778 C 174.849 110.664,174.578 110.307,174.246 109.984 C 173.914 109.661,173.398 109.027,173.100 108.574 C 172.801 108.122,172.360 107.597,172.120 107.408 C 171.880 107.219,171.526 106.759,171.334 106.386 C 171.142 106.013,170.727 105.462,170.411 105.162 C 170.096 104.863,169.838 104.522,169.838 104.405 C 169.838 104.287,169.524 103.851,169.142 103.435 C 168.759 103.018,168.286 102.399,168.090 102.058 C 167.895 101.717,167.477 101.179,167.162 100.861 C 166.847 100.543,166.464 100.070,166.311 99.809 C 166.158 99.548,165.719 98.997,165.336 98.585 C 164.954 98.173,164.640 97.743,164.640 97.630 C 164.640 97.518,164.223 96.984,163.712 96.444 C 163.202 95.905,162.784 95.380,162.784 95.278 C 162.784 95.177,162.450 94.753,162.042 94.336 C 161.633 93.920,161.299 93.504,161.299 93.411 C 161.299 93.319,160.840 92.713,160.278 92.065 C 159.717 91.417,159.258 90.820,159.258 90.739 C 159.258 90.659,159.005 90.334,158.696 90.018 C 158.387 89.702,157.915 89.094,157.647 88.666 C 157.379 88.239,156.982 87.722,156.764 87.517 C 156.547 87.313,156.099 86.753,155.768 86.273 C 155.438 85.792,155.014 85.291,154.826 85.159 C 154.638 85.027,154.425 84.728,154.351 84.495 C 154.277 84.262,153.848 83.681,153.396 83.203 C 152.945 82.725,152.575 82.269,152.575 82.189 C 152.575 82.025,151.902 81.198,151.415 80.764 C 151.237 80.605,151.090 80.368,151.090 80.237 C 151.090 80.107,151.007 80.000,150.905 80.000 C 150.803 80.000,150.719 79.891,150.719 79.758 C 150.719 79.625,150.420 79.228,150.054 78.876 C 149.688 78.525,149.258 77.986,149.099 77.680 C 148.940 77.374,148.548 76.872,148.227 76.566 C 147.907 76.260,147.457 75.702,147.226 75.326 C 146.996 74.951,146.518 74.389,146.165 74.079 C 145.811 73.769,145.522 73.429,145.522 73.324 C 145.522 73.218,145.439 73.132,145.336 73.132 C 144.800 73.132,146.867 70.882,148.788 69.374 C 149.278 68.989,152.013 66.259,163.494 54.692 C 165.809 52.360,167.995 50.261,168.353 50.028 C 169.221 49.462,188.770 30.041,188.770 29.745 C 188.770 29.331,187.884 29.493,187.504 29.977 M235.360 29.780 C 235.360 29.927,235.443 30.099,235.545 30.162 C 235.647 30.226,235.731 30.449,235.731 30.659 C 235.731 30.869,236.044 31.347,236.427 31.722 C 236.810 32.096,237.231 32.608,237.362 32.860 C 237.494 33.112,237.849 33.601,238.151 33.946 C 238.453 34.292,238.701 34.634,238.701 34.706 C 238.701 34.779,239.118 35.315,239.629 35.898 C 240.139 36.482,240.557 37.049,240.557 37.158 C 240.557 37.268,240.839 37.623,241.183 37.948 C 241.527 38.273,241.862 38.705,241.926 38.908 C 242.063 39.338,243.456 40.835,243.719 40.835 C 243.817 40.835,243.898 40.972,243.898 41.138 C 243.898 41.305,244.045 41.576,244.225 41.742 C 244.405 41.907,244.719 42.363,244.921 42.756 C 245.124 43.149,245.556 43.754,245.881 44.102 C 246.206 44.449,246.524 44.899,246.588 45.102 C 246.653 45.305,246.969 45.734,247.291 46.056 C 247.876 46.641,248.830 47.882,249.769 49.281 C 250.043 49.689,250.445 50.190,250.663 50.394 C 250.881 50.599,251.181 51.008,251.330 51.304 C 251.479 51.600,251.831 52.059,252.111 52.324 C 252.392 52.589,252.622 52.902,252.622 53.019 C 252.622 53.380,254.343 55.128,254.699 55.128 C 255.104 55.128,255.148 54.654,254.756 54.504 C 254.603 54.445,254.478 54.202,254.478 53.963 C 254.478 53.712,254.206 53.266,253.828 52.900 C 253.471 52.554,253.179 52.165,253.179 52.036 C 253.179 51.907,252.845 51.492,252.436 51.115 C 252.028 50.737,251.693 50.337,251.693 50.225 C 251.692 50.114,251.274 49.571,250.765 49.017 C 250.255 48.464,249.838 47.892,249.838 47.746 C 249.838 47.600,249.545 47.188,249.188 46.831 C 248.831 46.473,248.538 46.067,248.538 45.929 C 248.538 45.790,248.204 45.335,247.796 44.919 C 247.387 44.502,247.053 44.044,247.053 43.901 C 247.053 43.758,246.427 43.030,245.662 42.284 C 244.896 41.538,244.270 40.782,244.269 40.603 C 244.269 40.425,244.195 40.278,244.104 40.278 C 244.013 40.278,243.886 40.070,243.822 39.814 C 243.758 39.559,243.623 39.350,243.523 39.350 C 243.423 39.350,243.341 39.271,243.341 39.174 C 243.341 39.076,243.049 38.713,242.691 38.366 C 242.334 38.019,242.042 37.618,242.041 37.475 C 242.041 37.333,241.707 36.902,241.299 36.517 C 240.891 36.133,240.557 35.684,240.557 35.519 C 240.557 35.353,240.265 34.942,239.907 34.605 C 239.550 34.268,239.256 33.882,239.254 33.748 C 239.253 33.613,239.044 33.307,238.790 33.066 C 238.537 32.826,238.329 32.554,238.329 32.463 C 238.329 32.372,238.204 32.297,238.051 32.297 C 237.883 32.297,237.773 32.125,237.773 31.864 C 237.773 31.583,237.422 31.097,236.767 30.472 C 235.741 29.492,235.360 29.305,235.360 29.780 M194.710 47.394 C 194.251 47.837,193.711 48.288,193.512 48.397 C 193.121 48.611,191.276 50.422,176.953 64.658 C 166.784 74.764,167.178 74.287,168.092 75.412 C 168.442 75.843,168.874 76.440,169.051 76.740 C 169.228 77.039,169.729 77.664,170.162 78.129 C 170.596 78.593,170.951 79.061,170.951 79.169 C 170.951 79.277,171.229 79.661,171.569 80.021 C 171.909 80.381,172.453 81.063,172.779 81.536 C 173.104 82.009,173.515 82.505,173.692 82.637 C 173.869 82.769,174.174 83.169,174.369 83.527 C 174.564 83.884,175.035 84.519,175.415 84.938 C 175.796 85.358,176.212 85.897,176.340 86.136 C 176.468 86.376,176.853 86.836,177.196 87.159 C 177.539 87.482,177.819 87.839,177.819 87.951 C 177.819 88.063,178.195 88.578,178.654 89.095 C 179.114 89.612,179.490 90.103,179.490 90.185 C 179.490 90.267,179.823 90.684,180.230 91.113 C 180.638 91.541,181.097 92.136,181.252 92.434 C 181.406 92.732,181.813 93.251,182.157 93.588 C 182.500 93.924,182.838 94.382,182.908 94.606 C 182.977 94.829,183.316 95.260,183.661 95.562 C 184.005 95.865,184.430 96.388,184.604 96.725 C 185.203 97.883,185.798 98.146,186.185 97.423 C 186.372 97.073,186.308 96.952,185.635 96.379 C 185.215 96.023,184.872 95.604,184.872 95.450 C 184.872 95.295,184.455 94.774,183.944 94.292 C 183.434 93.811,183.014 93.300,183.011 93.158 C 183.005 92.845,181.533 91.211,181.315 91.276 C 181.230 91.302,181.160 91.132,181.160 90.899 C 181.160 90.656,180.884 90.215,180.510 89.863 C 180.153 89.526,179.861 89.120,179.861 88.959 C 179.861 88.799,179.443 88.268,178.933 87.779 C 178.422 87.289,178.005 86.756,178.005 86.594 C 178.005 86.432,177.879 86.251,177.726 86.192 C 177.573 86.134,177.448 86.005,177.448 85.907 C 177.448 85.666,176.966 85.197,176.719 85.197 C 176.609 85.197,176.520 85.001,176.520 84.761 C 176.520 84.477,176.207 84.036,175.624 83.499 C 175.131 83.045,174.610 82.407,174.465 82.079 C 174.320 81.752,174.097 81.485,173.969 81.485 C 173.840 81.485,173.735 81.395,173.735 81.286 C 173.735 81.029,173.263 80.557,173.006 80.557 C 172.897 80.557,172.807 80.378,172.807 80.160 C 172.807 79.923,172.431 79.407,171.879 78.886 C 171.369 78.405,170.951 77.868,170.951 77.694 C 170.951 77.519,170.660 77.069,170.303 76.693 C 169.947 76.317,169.654 75.908,169.654 75.784 C 169.653 75.660,169.394 75.264,169.078 74.904 L 168.503 74.250 170.464 72.299 C 171.542 71.226,172.511 70.348,172.617 70.348 C 172.723 70.348,173.596 69.575,174.557 68.631 C 175.517 67.687,177.187 66.052,178.268 64.997 C 179.348 63.943,180.232 63.046,180.232 63.003 C 180.232 62.928,181.700 61.468,185.692 57.573 C 186.773 56.519,187.657 55.621,187.657 55.579 C 187.657 55.504,189.125 54.043,193.117 50.148 C 194.197 49.094,195.081 48.185,195.081 48.128 C 195.081 48.071,195.311 47.827,195.592 47.586 L 196.102 47.147 211.274 47.146 C 227.844 47.146,227.193 47.104,227.193 48.172 C 227.193 48.384,227.485 48.842,227.842 49.188 C 228.200 49.534,228.492 49.920,228.492 50.045 C 228.492 50.170,228.826 50.559,229.234 50.908 C 229.643 51.258,229.977 51.671,229.977 51.827 C 229.977 51.983,230.269 52.360,230.626 52.665 C 230.984 52.971,231.276 53.306,231.276 53.412 C 231.276 53.517,231.401 53.651,231.555 53.710 C 231.708 53.769,231.833 53.952,231.833 54.118 C 231.833 54.283,232.125 54.760,232.483 55.178 C 232.840 55.595,233.132 56.044,233.132 56.175 C 233.132 56.306,233.466 56.743,233.875 57.148 C 234.283 57.552,234.617 58.056,234.617 58.269 C 234.617 58.481,234.682 58.654,234.761 58.654 C 234.840 58.654,235.423 59.155,236.057 59.768 C 236.691 60.381,237.292 60.882,237.392 60.882 C 237.493 60.882,237.530 60.999,237.475 61.143 C 237.420 61.286,237.590 61.744,237.852 62.160 C 238.115 62.576,238.329 62.955,238.329 63.004 C 238.329 63.052,238.622 63.375,238.979 63.722 C 239.336 64.069,239.629 64.470,239.629 64.613 C 239.629 64.756,239.963 65.187,240.372 65.571 C 240.780 65.955,241.114 66.404,241.114 66.570 C 241.114 66.735,241.406 67.146,241.763 67.483 C 242.121 67.820,242.413 68.206,242.413 68.340 C 242.413 68.475,242.748 68.899,243.156 69.283 C 243.564 69.667,243.898 70.117,243.898 70.282 C 243.898 70.447,244.174 70.843,244.510 71.161 C 244.847 71.480,245.286 72.031,245.485 72.386 C 245.926 73.174,246.221 73.503,246.483 73.503 C 246.593 73.503,246.682 73.629,246.682 73.782 C 246.682 73.935,246.766 74.060,246.868 74.060 C 246.970 74.060,247.053 74.198,247.053 74.367 C 247.053 74.535,247.471 75.073,247.981 75.563 C 248.506 76.065,248.910 76.618,248.910 76.834 C 248.910 77.050,249.031 77.216,249.188 77.216 C 249.341 77.216,249.466 77.321,249.466 77.450 C 249.466 77.579,249.675 77.841,249.930 78.033 C 250.195 78.232,250.394 78.569,250.394 78.818 C 250.394 79.059,250.565 79.359,250.776 79.488 C 250.985 79.616,251.400 80.114,251.696 80.594 C 251.993 81.074,252.448 81.606,252.707 81.776 C 252.967 81.945,253.180 82.221,253.182 82.388 C 253.190 83.279,255.867 85.060,256.256 84.432 C 256.314 84.337,256.293 84.272,256.209 84.287 C 255.787 84.360,255.582 84.194,255.031 83.336 C 254.702 82.822,254.296 82.300,254.130 82.175 C 253.964 82.051,253.710 81.719,253.564 81.438 C 253.419 81.156,253.067 80.697,252.781 80.417 C 252.495 80.136,252.259 79.822,252.256 79.718 C 252.253 79.614,251.835 79.030,251.327 78.419 C 250.819 77.808,250.402 77.206,250.399 77.081 C 250.397 76.956,250.198 76.724,249.958 76.567 C 249.718 76.410,249.297 75.869,249.023 75.364 C 248.748 74.860,248.321 74.288,248.075 74.094 C 247.828 73.900,247.518 73.499,247.387 73.204 C 247.256 72.910,246.877 72.423,246.544 72.124 C 246.212 71.824,245.940 71.495,245.940 71.393 C 245.940 71.291,245.606 70.811,245.197 70.327 C 244.789 69.842,244.455 69.378,244.455 69.294 C 244.455 69.210,244.121 68.776,243.712 68.329 C 243.304 67.882,242.970 67.457,242.970 67.384 C 242.970 67.310,242.552 66.773,242.042 66.190 C 241.531 65.606,241.114 65.058,241.114 64.970 C 241.114 64.883,240.829 64.518,240.481 64.160 C 240.133 63.802,239.799 63.352,239.738 63.161 C 239.598 62.721,238.240 61.253,237.973 61.253 C 237.863 61.253,237.773 61.117,237.773 60.950 C 237.773 60.783,237.622 60.512,237.438 60.347 C 237.254 60.181,236.925 59.661,236.707 59.191 C 236.489 58.720,236.055 58.120,235.742 57.857 C 235.430 57.594,235.174 57.248,235.174 57.089 C 235.174 56.929,234.840 56.464,234.432 56.056 C 234.023 55.647,233.689 55.239,233.689 55.148 C 233.689 55.057,233.313 54.564,232.854 54.053 C 232.394 53.542,232.019 53.044,232.019 52.945 C 232.019 52.847,231.684 52.387,231.276 51.923 C 230.868 51.459,230.534 51.005,230.534 50.914 C 230.534 50.822,230.200 50.400,229.791 49.975 C 229.383 49.550,229.049 49.136,229.049 49.055 C 229.049 48.973,228.673 48.449,228.213 47.889 C 227.754 47.329,227.378 46.807,227.378 46.730 C 227.378 46.653,220.216 46.589,211.462 46.589 L 195.545 46.590 194.710 47.394 M210.972 54.863 C 210.879 55.104,210.172 55.139,205.940 55.118 L 201.015 55.094 199.909 56.225 C 199.301 56.846,198.767 57.355,198.722 57.355 C 198.678 57.355,198.145 57.856,197.539 58.469 C 196.932 59.081,196.324 59.582,196.188 59.582 C 195.905 59.582,192.854 62.657,192.854 62.943 C 192.854 63.046,192.770 63.079,192.668 63.016 C 192.566 62.953,192.483 63.032,192.483 63.191 C 192.483 63.350,192.357 63.480,192.204 63.480 C 192.051 63.480,191.926 63.543,191.926 63.621 C 191.926 63.698,191.685 63.867,191.391 63.998 C 191.097 64.128,189.882 65.192,188.691 66.363 C 187.501 67.534,186.426 68.493,186.303 68.494 C 185.959 68.498,180.413 74.161,180.330 74.593 C 180.262 74.941,182.974 72.971,183.171 72.529 C 183.205 72.452,183.342 72.390,183.476 72.390 C 183.610 72.390,184.690 71.456,185.878 70.316 C 187.065 69.175,188.291 68.086,188.603 67.897 C 188.914 67.708,190.089 66.636,191.214 65.516 C 192.338 64.397,193.327 63.480,193.412 63.480 C 193.652 63.480,194.454 62.775,196.189 61.037 C 197.072 60.153,198.207 59.120,198.712 58.742 C 199.954 57.811,201.763 56.029,201.763 55.737 C 201.763 55.547,203.463 55.499,210.193 55.499 C 216.773 55.499,218.640 55.448,218.700 55.267 C 218.755 55.102,219.462 55.017,221.149 54.973 L 223.520 54.911 224.065 55.432 C 224.364 55.719,224.860 56.345,225.167 56.824 C 225.474 57.302,225.843 57.738,225.986 57.793 C 226.130 57.849,226.410 58.212,226.608 58.601 C 226.807 58.989,227.269 59.599,227.636 59.955 C 228.002 60.312,228.303 60.705,228.304 60.829 C 228.305 60.953,228.680 61.476,229.138 61.991 C 229.595 62.506,230.089 63.159,230.235 63.442 C 230.382 63.725,230.748 64.163,231.049 64.415 C 231.351 64.666,231.655 65.056,231.725 65.281 C 231.795 65.506,232.124 65.965,232.457 66.302 C 232.790 66.639,233.331 67.310,233.661 67.793 C 233.990 68.276,234.424 68.760,234.624 68.867 C 234.824 68.974,234.988 69.184,234.988 69.334 C 234.988 69.483,235.072 69.606,235.174 69.606 C 235.276 69.606,235.360 69.762,235.360 69.953 C 235.360 70.144,235.652 70.551,236.009 70.856 C 236.367 71.161,236.659 71.479,236.659 71.563 C 236.659 71.647,236.979 72.097,237.370 72.563 C 237.761 73.029,238.237 73.661,238.428 73.968 C 238.619 74.274,239.134 74.918,239.573 75.398 C 240.012 75.879,240.371 76.342,240.371 76.428 C 240.371 76.514,240.705 76.932,241.114 77.357 C 241.522 77.782,241.856 78.203,241.856 78.293 C 241.856 78.384,242.274 78.935,242.784 79.518 C 243.295 80.101,243.712 80.666,243.712 80.774 C 243.712 80.881,244.130 81.426,244.640 81.984 C 245.151 82.543,245.568 83.083,245.568 83.185 C 245.568 83.287,245.903 83.691,246.311 84.084 C 246.719 84.476,247.053 84.912,247.053 85.053 C 247.053 85.195,247.353 85.598,247.719 85.950 C 248.085 86.301,248.594 86.945,248.851 87.379 C 249.107 87.813,249.507 88.318,249.740 88.501 C 249.972 88.684,250.336 89.174,250.549 89.591 C 250.761 90.007,251.189 90.562,251.500 90.823 C 251.811 91.085,252.065 91.391,252.065 91.504 C 252.065 91.727,252.097 91.769,253.187 92.962 C 253.591 93.405,253.921 93.869,253.921 93.993 C 253.921 94.264,254.958 95.274,255.545 95.576 C 255.940 95.779,255.963 95.754,255.963 95.134 C 255.963 94.675,255.879 94.478,255.684 94.478 C 255.531 94.478,255.406 94.388,255.406 94.279 C 255.406 94.022,254.934 93.550,254.677 93.550 C 254.567 93.550,254.478 93.425,254.478 93.271 C 254.478 93.118,254.394 92.993,254.292 92.993 C 254.190 92.993,254.107 92.862,254.107 92.702 C 254.107 92.541,253.773 92.014,253.364 91.529 C 252.956 91.045,252.622 90.595,252.622 90.529 C 252.622 90.462,252.121 89.901,251.508 89.281 C 250.896 88.661,250.394 88.050,250.394 87.923 C 250.394 87.796,250.248 87.557,250.070 87.391 C 249.359 86.731,248.910 86.152,248.910 85.896 C 248.910 85.748,248.492 85.191,247.981 84.658 C 247.471 84.126,247.053 83.569,247.053 83.420 C 247.053 83.271,246.761 82.865,246.404 82.518 C 246.046 82.171,245.754 81.797,245.754 81.686 C 245.754 81.575,245.417 81.148,245.005 80.735 C 244.592 80.323,244.104 79.738,243.920 79.435 C 243.736 79.132,243.238 78.514,242.813 78.061 C 242.389 77.608,242.042 77.125,242.042 76.986 C 242.042 76.848,241.708 76.377,241.299 75.939 C 240.891 75.501,240.557 75.042,240.557 74.918 C 240.557 74.795,240.139 74.300,239.629 73.818 C 239.118 73.336,238.701 72.822,238.701 72.675 C 238.701 72.528,238.408 72.124,238.051 71.777 C 237.694 71.430,237.401 71.051,237.401 70.936 C 237.401 70.820,237.025 70.328,236.565 69.841 C 236.106 69.354,235.563 68.777,235.359 68.559 C 235.155 68.340,234.988 68.057,234.988 67.931 C 234.988 67.804,234.696 67.425,234.339 67.088 C 233.981 66.751,233.689 66.302,233.689 66.091 C 233.689 65.874,233.568 65.708,233.411 65.708 C 233.258 65.708,233.132 65.618,233.132 65.509 C 233.132 65.252,232.660 64.780,232.403 64.780 C 232.294 64.780,232.204 64.654,232.204 64.501 C 232.204 64.348,232.121 64.223,232.019 64.223 C 231.916 64.223,231.833 64.085,231.833 63.916 C 231.833 63.747,231.499 63.291,231.090 62.902 C 230.682 62.514,230.348 62.067,230.348 61.910 C 230.348 61.753,230.014 61.290,229.606 60.882 C 229.197 60.473,228.863 60.029,228.863 59.895 C 228.863 59.760,228.362 59.180,227.749 58.606 C 227.137 58.032,226.636 57.426,226.636 57.260 C 226.636 56.917,226.206 56.427,225.907 56.427 C 225.797 56.427,225.708 56.302,225.708 56.148 C 225.708 55.995,225.641 55.870,225.560 55.870 C 225.479 55.870,225.333 55.599,225.236 55.267 L 225.058 54.664 218.068 54.623 C 211.987 54.589,211.065 54.620,210.972 54.863 M255.035 55.777 C 255.035 55.930,255.109 56.056,255.199 56.056 C 255.289 56.056,255.404 56.214,255.455 56.409 C 255.506 56.603,255.724 56.856,255.941 56.972 C 256.557 57.302,256.449 56.712,255.771 56.049 C 255.130 55.423,255.035 55.388,255.035 55.777 M213.428 71.979 C 210.597 72.062,210.437 72.575,213.242 72.575 C 215.464 72.575,216.427 73.022,216.427 74.054 C 216.427 74.266,216.549 74.432,216.705 74.432 C 216.858 74.432,216.984 74.521,216.984 74.630 C 216.984 74.887,217.456 75.360,217.713 75.360 C 217.822 75.360,217.912 75.485,217.912 75.638 C 217.912 75.791,217.995 75.916,218.097 75.916 C 218.200 75.916,218.283 76.048,218.283 76.209 C 218.283 76.371,218.617 76.843,219.026 77.260 C 219.434 77.676,219.768 78.124,219.768 78.255 C 219.768 78.386,220.186 78.929,220.696 79.461 C 221.206 79.994,221.624 80.507,221.624 80.602 C 221.624 80.698,222.042 81.244,222.552 81.817 C 223.063 82.390,223.480 82.931,223.480 83.020 C 223.480 83.247,223.970 83.712,224.209 83.712 C 224.319 83.712,224.408 83.818,224.408 83.947 C 224.408 84.076,224.617 84.338,224.872 84.530 C 225.128 84.721,225.336 85.059,225.336 85.280 C 225.336 85.501,225.629 85.965,225.986 86.311 C 226.343 86.657,226.636 87.049,226.636 87.183 C 226.636 87.316,226.970 87.759,227.378 88.167 C 227.787 88.575,228.121 89.040,228.121 89.199 C 228.121 89.358,228.499 89.832,228.962 90.253 C 229.424 90.674,229.983 91.317,230.204 91.681 C 230.425 92.045,230.881 92.609,231.219 92.934 C 231.557 93.259,231.833 93.653,231.833 93.809 C 231.833 93.966,232.085 94.352,232.394 94.668 C 233.067 95.356,233.100 95.293,231.099 97.157 C 230.226 97.970,228.677 99.507,227.657 100.572 C 226.636 101.638,224.967 103.313,223.948 104.294 C 221.572 106.583,219.768 108.393,217.442 110.819 C 215.527 112.818,214.204 113.968,213.820 113.968 C 213.605 113.968,211.972 115.521,211.972 115.726 C 211.972 115.783,211.429 116.373,210.766 117.037 C 210.102 117.701,209.559 118.326,209.559 118.426 C 209.559 118.526,209.470 118.608,209.360 118.608 C 209.103 118.608,208.631 119.080,208.631 119.337 C 208.631 119.446,208.550 119.536,208.450 119.536 C 208.351 119.536,207.901 119.891,207.450 120.325 C 206.999 120.759,206.235 121.469,205.752 121.902 C 204.820 122.739,204.815 123.248,205.737 123.248 C 206.076 123.248,210.699 118.759,217.276 112.041 C 218.340 110.954,220.525 108.956,220.649 108.957 C 220.726 108.958,222.000 107.762,223.480 106.299 C 224.961 104.836,227.911 101.933,230.037 99.847 C 232.162 97.762,233.981 95.911,234.078 95.734 C 234.280 95.369,233.609 94.160,232.765 93.364 C 232.494 93.109,232.032 92.539,231.739 92.097 C 231.446 91.656,231.072 91.197,230.908 91.077 C 230.744 90.957,230.473 90.566,230.306 90.208 C 230.139 89.850,229.704 89.294,229.340 88.971 C 228.976 88.648,228.677 88.273,228.676 88.136 C 228.676 88.000,228.258 87.436,227.748 86.883 C 227.238 86.329,226.821 85.784,226.821 85.671 C 226.821 85.557,226.526 85.186,226.166 84.846 C 225.805 84.506,225.383 83.982,225.228 83.682 C 225.073 83.382,224.637 82.820,224.259 82.434 C 223.882 82.048,223.406 81.475,223.202 81.161 C 222.497 80.077,221.715 79.030,221.021 78.243 C 220.638 77.808,220.325 77.396,220.325 77.326 C 220.325 77.158,219.999 76.758,219.189 75.934 C 218.820 75.558,218.463 75.078,218.396 74.867 C 218.329 74.656,217.963 74.150,217.583 73.744 C 217.202 73.338,216.724 72.785,216.520 72.515 C 216.090 71.949,215.849 71.907,213.428 71.979 M207.981 72.633 C 207.675 72.970,207.118 73.432,206.742 73.660 C 206.367 73.887,205.490 74.665,204.793 75.388 C 204.097 76.111,203.067 77.044,202.506 77.461 C 201.944 77.877,200.649 79.034,199.627 80.032 C 198.605 81.029,197.394 82.087,196.936 82.382 C 196.477 82.677,195.632 83.410,195.057 84.011 C 193.951 85.167,193.102 85.940,192.937 85.940 C 192.882 85.940,192.612 86.151,192.335 86.410 C 191.235 87.439,190.584 87.092,188.150 84.176 C 187.553 83.462,186.404 82.199,185.597 81.370 C 184.790 80.542,184.130 79.811,184.130 79.748 C 184.130 79.344,180.939 76.102,180.542 76.102 C 180.321 76.102,180.232 76.262,180.232 76.659 C 180.232 77.030,180.325 77.216,180.510 77.216 C 180.664 77.216,180.789 77.297,180.789 77.396 C 180.789 77.496,181.541 78.329,182.459 79.248 C 183.378 80.166,184.130 81.014,184.130 81.132 C 184.130 81.250,185.132 82.351,186.357 83.580 C 187.582 84.808,188.585 85.954,188.585 86.126 C 188.585 86.871,190.205 87.981,191.291 87.981 C 192.290 87.981,192.320 87.965,193.510 86.775 C 194.174 86.111,194.828 85.568,194.964 85.568 C 195.100 85.568,195.711 85.046,196.322 84.408 C 198.058 82.594,199.299 81.485,199.593 81.485 C 199.741 81.485,200.812 80.524,201.973 79.350 C 203.134 78.177,204.175 77.216,204.287 77.216 C 204.399 77.216,205.428 76.297,206.573 75.174 C 207.729 74.040,208.810 73.132,209.003 73.132 C 209.474 73.132,209.618 72.847,209.376 72.394 C 209.086 71.852,208.618 71.933,207.981 72.633 M208.631 82.135 C 208.631 82.288,208.552 82.413,208.455 82.413 C 208.358 82.413,207.431 83.248,206.395 84.269 C 205.359 85.290,204.415 86.127,204.297 86.129 C 204.180 86.131,203.048 87.175,201.782 88.449 C 200.460 89.780,199.331 90.766,199.130 90.766 C 198.811 90.766,196.998 92.451,196.102 93.581 C 195.898 93.839,195.480 94.205,195.174 94.394 C 194.868 94.584,194.231 95.119,193.760 95.583 C 193.289 96.047,192.717 96.579,192.490 96.765 C 192.092 97.090,192.089 97.113,192.419 97.362 C 192.951 97.766,193.097 97.703,194.169 96.609 C 194.722 96.045,195.871 95.032,196.723 94.358 C 197.575 93.683,198.870 92.534,199.600 91.805 C 200.330 91.076,201.397 90.125,201.970 89.692 C 202.543 89.258,203.488 88.404,204.071 87.793 C 204.654 87.182,205.208 86.682,205.303 86.682 C 205.398 86.682,205.476 86.575,205.476 86.444 C 205.476 86.313,205.705 86.068,205.986 85.899 C 208.420 84.441,210.466 81.856,209.188 81.856 C 208.817 81.856,208.631 81.949,208.631 82.135 M210.487 81.980 C 210.487 82.129,211.950 83.487,212.027 83.410 C 212.074 83.362,212.167 83.536,212.232 83.796 C 212.297 84.056,212.432 84.269,212.533 84.269 C 212.633 84.269,212.715 84.376,212.715 84.507 C 212.715 84.637,212.882 84.864,213.086 85.012 C 213.290 85.159,213.457 85.370,213.457 85.480 C 213.457 85.591,214.254 86.512,215.227 87.527 C 216.201 88.543,217.257 89.749,217.574 90.209 C 217.891 90.668,218.807 91.683,219.609 92.464 C 221.475 94.282,221.488 94.560,219.765 95.774 C 218.967 96.337,217.999 97.201,216.531 98.659 C 215.912 99.274,215.072 100.022,214.664 100.323 C 214.255 100.623,213.078 101.686,212.048 102.685 C 211.018 103.684,210.121 104.501,210.054 104.501 C 209.846 104.501,208.961 105.276,207.503 106.735 C 206.729 107.509,205.810 108.341,205.461 108.583 C 204.569 109.201,204.467 109.292,202.599 111.130 C 201.680 112.035,200.531 113.047,200.046 113.380 C 199.561 113.713,199.165 114.065,199.165 114.162 C 199.165 114.272,195.052 114.339,188.295 114.339 C 181.096 114.339,177.465 114.401,177.541 114.524 C 177.615 114.645,181.607 114.710,188.909 114.710 L 200.163 114.710 201.236 113.596 C 201.826 112.984,202.442 112.483,202.606 112.483 C 202.944 112.483,203.434 112.051,203.434 111.753 C 203.434 111.644,203.523 111.555,203.633 111.555 C 203.890 111.555,204.362 111.082,204.362 110.825 C 204.362 110.716,204.432 110.626,204.519 110.626 C 204.605 110.626,205.147 110.170,205.724 109.611 C 206.300 109.053,207.002 108.475,207.284 108.328 C 207.565 108.180,208.649 107.175,209.691 106.095 C 210.734 105.014,211.717 104.130,211.876 104.130 C 212.035 104.130,213.135 103.169,214.320 101.995 C 215.505 100.821,216.615 99.861,216.787 99.861 C 216.959 99.861,217.299 99.589,217.543 99.258 C 217.786 98.926,218.528 98.153,219.192 97.541 C 221.728 95.200,221.624 95.333,221.624 94.417 C 221.624 93.917,221.511 93.463,221.346 93.298 C 221.193 93.145,221.067 92.887,221.067 92.724 C 221.067 92.562,220.148 91.495,219.026 90.353 C 217.903 89.211,216.984 88.161,216.984 88.021 C 216.984 87.728,213.078 83.781,212.859 83.852 C 212.779 83.877,212.715 83.815,212.715 83.714 C 212.715 83.429,212.110 82.792,211.939 82.897 C 211.855 82.949,211.787 82.897,211.787 82.782 C 211.787 82.464,211.229 81.973,210.836 81.944 C 210.644 81.930,210.487 81.946,210.487 81.980 M145.745 84.803 C 145.436 84.994,146.196 86.352,147.096 87.219 C 147.455 87.565,147.749 87.956,147.749 88.087 C 147.749 88.219,148.050 88.645,148.418 89.035 C 148.786 89.425,149.201 89.964,149.340 90.233 C 149.479 90.502,149.846 90.961,150.156 91.254 C 150.466 91.546,150.719 91.887,150.719 92.012 C 150.719 92.136,151.095 92.661,151.555 93.179 C 152.014 93.696,152.390 94.187,152.390 94.270 C 152.390 94.353,152.661 94.705,152.993 95.053 C 153.325 95.400,153.704 95.893,153.835 96.148 C 153.967 96.404,154.405 96.982,154.810 97.433 C 155.214 97.884,155.545 98.334,155.545 98.432 C 155.545 98.530,155.828 98.877,156.173 99.203 C 156.518 99.528,156.927 100.039,157.082 100.338 C 157.237 100.637,157.664 101.201,158.032 101.591 C 158.400 101.981,158.701 102.403,158.701 102.528 C 158.701 102.653,159.035 103.082,159.443 103.480 C 159.852 103.879,160.186 104.338,160.186 104.501 C 160.186 104.664,160.520 105.123,160.928 105.522 C 161.336 105.921,161.671 106.339,161.671 106.452 C 161.671 106.564,161.963 106.975,162.320 107.365 C 162.677 107.755,162.970 108.131,162.970 108.200 C 162.970 108.269,163.387 108.794,163.898 109.366 C 164.408 109.939,164.826 110.492,164.826 110.595 C 164.826 110.698,165.160 111.130,165.568 111.555 C 165.977 111.980,166.311 112.404,166.311 112.497 C 166.311 112.591,166.591 112.981,166.934 113.364 C 167.276 113.747,167.770 114.394,168.031 114.803 C 168.292 115.211,168.722 115.771,168.986 116.048 C 169.250 116.324,169.466 116.639,169.466 116.748 C 169.466 116.857,169.800 117.308,170.209 117.751 C 170.617 118.194,170.951 118.640,170.951 118.742 C 170.951 118.844,171.327 119.331,171.787 119.825 C 172.246 120.318,172.622 120.784,172.622 120.860 C 172.622 120.936,172.958 121.400,173.368 121.891 C 173.779 122.382,174.200 122.889,174.304 123.016 C 174.408 123.144,174.656 123.248,174.857 123.248 C 175.295 123.248,175.365 122.550,174.942 122.387 C 174.789 122.329,174.664 122.164,174.664 122.022 C 174.664 121.880,174.580 121.763,174.478 121.763 C 174.376 121.763,174.292 121.625,174.292 121.456 C 174.292 121.287,173.958 120.831,173.550 120.443 C 173.142 120.054,172.807 119.602,172.807 119.437 C 172.807 119.098,172.377 118.608,172.078 118.608 C 171.969 118.608,171.879 118.483,171.879 118.329 C 171.879 118.176,171.796 118.051,171.694 118.051 C 171.592 118.051,171.508 117.913,171.508 117.745 C 171.508 117.576,171.090 117.038,170.580 116.549 C 170.070 116.059,169.651 115.550,169.649 115.416 C 169.647 115.283,169.315 114.798,168.910 114.339 C 168.504 113.879,168.172 113.433,168.170 113.348 C 168.168 113.262,167.749 112.723,167.239 112.150 C 166.729 111.578,166.311 111.036,166.311 110.947 C 166.311 110.720,165.821 110.255,165.582 110.255 C 165.472 110.255,165.383 110.130,165.383 109.977 C 165.383 109.824,165.299 109.698,165.197 109.698 C 165.095 109.698,165.012 109.558,165.012 109.385 C 165.012 109.213,164.677 108.676,164.269 108.192 C 163.861 107.708,163.527 107.214,163.527 107.094 C 163.527 106.975,163.234 106.585,162.877 106.227 C 162.520 105.870,162.227 105.464,162.227 105.325 C 162.227 105.187,161.893 104.764,161.485 104.386 C 161.077 104.008,160.742 103.619,160.742 103.521 C 160.742 103.422,160.241 102.806,159.629 102.151 C 159.016 101.497,158.515 100.842,158.515 100.696 C 158.515 100.551,158.181 100.101,157.773 99.697 C 157.364 99.293,157.030 98.834,157.030 98.678 C 157.030 98.522,156.738 98.110,156.381 97.763 C 156.023 97.416,155.731 97.015,155.731 96.872 C 155.730 96.729,155.396 96.298,154.988 95.914 C 154.580 95.530,154.246 95.096,154.246 94.949 C 154.246 94.802,153.965 94.406,153.621 94.069 C 153.277 93.733,152.937 93.268,152.865 93.037 C 152.793 92.806,152.657 92.664,152.562 92.723 C 152.467 92.781,152.390 92.705,152.390 92.553 C 152.390 92.402,152.181 92.113,151.926 91.913 C 151.671 91.712,151.462 91.455,151.462 91.342 C 151.462 91.229,151.378 91.137,151.276 91.137 C 151.174 91.137,151.090 90.999,151.090 90.830 C 151.090 90.661,150.756 90.205,150.348 89.816 C 149.940 89.428,149.606 88.987,149.606 88.838 C 149.606 88.688,149.397 88.401,149.142 88.200 C 148.886 87.999,148.677 87.779,148.677 87.709 C 148.677 87.512,148.168 87.053,147.948 87.053 C 147.839 87.053,147.749 86.880,147.749 86.668 C 147.749 86.082,146.123 84.569,145.745 84.803 M144.780 85.012 C 144.780 85.114,144.905 85.197,145.058 85.197 C 145.211 85.197,145.336 85.114,145.336 85.012 C 145.336 84.910,145.211 84.826,145.058 84.826 C 144.905 84.826,144.780 84.910,144.780 85.012 M144.682 98.840 C 144.682 105.680,144.705 108.451,144.733 104.998 C 144.761 101.545,144.761 95.949,144.733 92.562 C 144.705 89.175,144.682 92.000,144.682 98.840 M256.061 96.017 C 255.982 96.200,255.969 96.402,256.033 96.466 C 256.221 96.654,256.373 96.390,256.286 96.024 C 256.210 95.700,256.200 95.699,256.061 96.017 M252.726 100.501 C 251.086 102.180,249.333 103.980,248.830 104.502 C 248.327 105.023,247.575 105.717,247.160 106.043 C 246.040 106.922,231.716 120.937,226.224 126.527 C 224.827 127.948,219.687 132.941,215.273 137.163 L 212.356 139.954 189.473 139.951 C 176.887 139.949,166.499 139.887,166.388 139.812 C 166.277 139.737,165.965 139.294,165.695 138.829 C 165.424 138.363,164.985 137.778,164.718 137.529 C 164.451 137.280,164.082 136.784,163.897 136.427 C 163.712 136.070,163.302 135.532,162.987 135.232 C 162.671 134.932,162.413 134.575,162.413 134.437 C 162.413 134.300,162.079 133.881,161.671 133.505 C 161.262 133.130,160.928 132.730,160.928 132.616 C 160.928 132.503,160.652 132.082,160.314 131.681 C 159.976 131.280,159.521 130.659,159.302 130.302 C 159.082 129.944,158.649 129.415,158.338 129.126 C 158.027 128.836,157.773 128.498,157.773 128.374 C 157.773 128.250,157.439 127.801,157.030 127.376 C 156.622 126.951,156.288 126.522,156.288 126.422 C 156.288 126.322,155.870 125.762,155.360 125.179 C 154.849 124.596,154.432 124.025,154.432 123.910 C 154.432 123.795,154.139 123.425,153.782 123.088 C 153.425 122.751,153.132 122.374,153.132 122.250 C 153.132 122.127,152.798 121.667,152.390 121.229 C 151.981 120.791,151.647 120.333,151.647 120.211 C 151.647 120.090,151.316 119.658,150.911 119.253 C 150.506 118.847,150.172 118.417,150.169 118.296 C 150.165 118.176,149.859 117.758,149.489 117.368 C 149.119 116.978,148.604 116.325,148.346 115.916 C 148.087 115.508,147.725 115.067,147.540 114.935 C 147.355 114.804,147.073 114.428,146.914 114.100 C 146.755 113.772,146.163 113.009,145.600 112.405 L 144.575 111.306 144.621 112.080 C 144.646 112.506,144.734 112.854,144.816 112.854 C 144.898 112.854,144.965 112.979,144.965 113.132 C 144.965 113.285,145.299 113.745,145.708 114.153 C 146.116 114.561,146.450 115.006,146.450 115.140 C 146.450 115.274,146.868 115.824,147.378 116.362 C 147.889 116.900,148.306 117.455,148.306 117.594 C 148.306 117.733,148.599 118.131,148.956 118.478 C 149.313 118.826,149.606 119.226,149.606 119.369 C 149.606 119.512,149.940 119.943,150.348 120.327 C 150.757 120.711,151.090 121.147,151.090 121.295 C 151.090 121.443,151.503 121.964,152.008 122.453 C 152.513 122.941,152.951 123.465,152.982 123.616 C 153.014 123.767,153.248 124.117,153.503 124.393 C 153.759 124.670,154.155 125.101,154.385 125.351 C 154.615 125.601,154.803 125.910,154.803 126.037 C 154.803 126.163,155.095 126.543,155.452 126.880 C 155.810 127.217,156.102 127.665,156.102 127.876 C 156.102 128.093,156.223 128.260,156.381 128.260 C 156.534 128.260,156.659 128.349,156.659 128.459 C 156.659 128.716,157.131 129.188,157.388 129.188 C 157.498 129.188,157.587 129.359,157.587 129.568 C 157.587 129.778,157.879 130.250,158.237 130.618 C 158.594 130.986,158.886 131.392,158.886 131.521 C 158.886 131.650,159.220 132.114,159.629 132.552 C 160.037 132.990,160.371 133.440,160.371 133.553 C 160.371 133.666,160.629 134.004,160.945 134.304 C 161.260 134.604,161.628 135.058,161.762 135.313 C 162.104 135.963,162.696 136.613,162.945 136.613 C 163.061 136.613,163.155 136.702,163.155 136.811 C 163.155 137.068,163.628 137.541,163.885 137.541 C 163.994 137.541,164.084 137.740,164.084 137.984 C 164.084 138.257,164.424 138.790,164.975 139.376 L 165.866 140.325 189.720 140.325 L 213.574 140.325 216.548 137.309 C 218.185 135.650,220.309 133.536,221.270 132.611 C 222.230 131.686,223.661 130.245,224.448 129.409 C 225.330 128.473,226.026 127.889,226.258 127.889 C 226.470 127.889,226.636 127.766,226.636 127.610 C 226.636 127.457,226.723 127.332,226.829 127.332 C 227.084 127.332,233.132 121.288,233.132 121.033 C 233.132 120.924,233.222 120.835,233.331 120.835 C 233.588 120.835,234.060 120.363,234.060 120.106 C 234.060 119.997,234.149 119.907,234.257 119.907 C 234.523 119.907,240.557 113.887,240.557 113.622 C 240.557 113.506,240.646 113.411,240.756 113.411 C 241.013 113.411,241.485 112.938,241.485 112.681 C 241.485 112.572,241.574 112.483,241.684 112.483 C 241.941 112.483,242.413 112.010,242.413 111.753 C 242.413 111.644,242.509 111.555,242.626 111.555 C 242.898 111.555,247.981 106.462,247.981 106.189 C 247.981 106.078,248.071 105.986,248.180 105.986 C 248.437 105.986,248.910 105.514,248.910 105.257 C 248.910 105.147,248.999 105.058,249.108 105.058 C 249.365 105.058,249.838 104.586,249.838 104.329 C 249.838 104.219,249.920 104.130,250.021 104.130 C 250.121 104.130,251.058 103.295,252.102 102.274 C 253.146 101.253,254.093 100.418,254.207 100.418 C 254.629 100.418,256.334 98.421,256.334 97.927 C 256.334 97.001,255.708 97.447,252.726 100.501 "
      stroke="#000000"
      fill="#000000"
      fill-rule="evenodd"
    /><path
      id="path2"
      d="M181.250 37.541 L 179.211 39.629 181.299 37.590 C 183.239 35.697,183.472 35.452,183.338 35.452 C 183.311 35.452,182.371 36.392,181.250 37.541 M194.753 47.152 C 194.420 47.455,194.216 47.703,194.301 47.703 C 194.386 47.703,194.695 47.452,194.988 47.146 C 195.671 46.434,195.539 46.437,194.753 47.152 M166.036 52.111 C 164.788 53.311,163.708 54.418,163.636 54.571 C 163.564 54.724,164.616 53.764,165.975 52.437 C 167.334 51.110,168.480 50.003,168.523 49.977 C 168.565 49.951,168.534 49.930,168.452 49.930 C 168.371 49.930,167.283 50.912,166.036 52.111 M190.712 50.905 L 189.791 51.879 190.766 50.958 C 191.302 50.452,191.740 50.013,191.740 49.984 C 191.740 49.845,191.568 49.999,190.712 50.905 M187.657 53.921 C 186.896 54.687,186.316 55.313,186.367 55.313 C 186.418 55.313,187.082 54.687,187.842 53.921 C 188.603 53.155,189.183 52.529,189.132 52.529 C 189.081 52.529,188.417 53.155,187.657 53.921 M232.575 53.735 C 232.922 54.093,233.247 54.385,233.298 54.385 C 233.349 54.385,233.107 54.093,232.761 53.735 C 232.415 53.378,232.090 53.086,232.039 53.086 C 231.988 53.086,232.229 53.378,232.575 53.735 M221.339 55.081 C 222.560 55.113,223.604 55.200,223.659 55.273 C 223.714 55.346,223.926 55.529,224.130 55.679 C 224.404 55.880,224.383 55.820,224.051 55.447 C 223.604 54.945,223.587 54.942,221.360 54.982 L 219.118 55.022 221.339 55.081 M254.617 55.251 C 254.745 55.302,254.849 55.494,254.849 55.677 C 254.849 55.860,254.974 56.114,255.128 56.241 C 255.320 56.401,255.406 56.408,255.406 56.264 C 255.406 56.149,255.323 56.056,255.220 56.056 C 255.118 56.056,255.035 55.847,255.035 55.592 C 255.035 55.268,254.937 55.132,254.710 55.142 C 254.516 55.151,254.479 55.195,254.617 55.251 M185.244 56.148 C 184.793 56.608,184.466 56.984,184.517 56.984 C 184.568 56.984,184.978 56.608,185.429 56.148 C 185.880 55.689,186.207 55.313,186.156 55.313 C 186.105 55.313,185.694 55.689,185.244 56.148 M160.180 58.051 L 158.979 59.304 160.232 58.103 C 160.921 57.442,161.485 56.878,161.485 56.850 C 161.485 56.713,161.296 56.887,160.180 58.051 M178.096 63.341 L 171.972 69.513 178.144 63.389 C 183.880 57.697,184.399 57.169,184.268 57.169 C 184.242 57.169,181.465 59.947,178.096 63.341 M235.187 57.309 C 235.195 57.385,235.508 57.694,235.883 57.995 L 236.566 58.542 235.926 57.855 C 235.265 57.146,235.165 57.072,235.187 57.309 M228.492 61.497 C 228.492 61.529,228.763 61.800,229.095 62.100 L 229.698 62.645 229.153 62.042 C 228.645 61.479,228.492 61.353,228.492 61.497 M190.198 66.549 C 189.912 66.801,189.751 67.007,189.841 67.007 C 189.931 67.007,190.201 66.798,190.441 66.543 C 190.996 65.952,190.873 65.955,190.198 66.549 M185.900 70.342 L 184.794 71.555 185.985 70.401 C 186.639 69.767,187.137 69.221,187.091 69.189 C 187.045 69.157,186.509 69.676,185.900 70.342 M147.739 70.302 L 147.100 70.998 147.796 70.358 C 148.444 69.763,148.577 69.606,148.435 69.606 C 148.404 69.606,148.091 69.919,147.739 70.302 M170.850 70.580 L 170.116 71.369 170.905 70.635 C 171.639 69.953,171.779 69.791,171.639 69.791 C 171.608 69.791,171.253 70.146,170.850 70.580 M211.435 71.944 C 211.238 72.174,210.945 72.227,210.200 72.165 C 209.444 72.102,209.246 72.139,209.319 72.330 C 209.449 72.667,211.024 72.651,211.403 72.308 C 211.822 71.929,215.891 71.847,216.369 72.208 C 216.692 72.452,216.692 72.448,216.374 72.101 C 215.910 71.594,211.846 71.464,211.435 71.944 M145.151 72.854 C 145.151 73.007,145.234 73.132,145.336 73.132 C 145.439 73.132,145.522 73.007,145.522 72.854 C 145.522 72.701,145.439 72.575,145.336 72.575 C 145.234 72.575,145.151 72.701,145.151 72.854 M167.997 73.395 C 167.659 73.743,167.427 74.140,167.482 74.276 C 167.559 74.470,167.584 74.466,167.596 74.255 C 167.604 74.107,167.877 73.710,168.203 73.373 C 168.530 73.036,168.755 72.761,168.704 72.761 C 168.653 72.761,168.335 73.046,167.997 73.395 M145.841 73.784 C 146.061 73.939,146.497 74.376,146.810 74.755 C 147.122 75.134,147.378 75.382,147.378 75.305 C 147.378 75.076,145.863 73.503,145.643 73.503 C 145.531 73.503,145.620 73.630,145.841 73.784 M204.176 75.824 C 203.416 76.589,202.835 77.216,202.886 77.216 C 202.937 77.216,203.601 76.589,204.362 75.824 C 205.123 75.058,205.703 74.432,205.652 74.432 C 205.601 74.432,204.937 75.058,204.176 75.824 M238.701 74.675 C 238.701 74.707,238.972 74.979,239.304 75.278 L 239.907 75.824 239.362 75.220 C 238.854 74.658,238.701 74.532,238.701 74.675 M167.981 75.603 C 167.981 75.635,168.253 75.907,168.585 76.207 L 169.188 76.752 168.643 76.148 C 168.135 75.586,167.981 75.460,167.981 75.603 M182.266 77.448 C 182.721 77.933,183.118 78.329,183.148 78.329 C 183.287 78.329,183.140 78.163,182.320 77.394 L 181.439 76.566 182.266 77.448 M220.882 78.051 C 221.228 78.408,221.553 78.701,221.604 78.701 C 221.655 78.701,221.414 78.408,221.067 78.051 C 220.721 77.694,220.396 77.401,220.345 77.401 C 220.294 77.401,220.535 77.694,220.882 78.051 M149.606 78.388 C 149.606 78.419,149.877 78.691,150.209 78.991 L 150.812 79.536 150.267 78.933 C 149.759 78.370,149.606 78.244,149.606 78.388 M199.819 79.624 C 199.216 80.234,198.759 80.758,198.804 80.790 C 198.849 80.821,199.380 80.322,199.984 79.681 C 201.379 78.200,201.266 78.161,199.819 79.624 M184.501 80.237 C 184.501 80.265,185.148 80.912,185.940 81.675 L 187.378 83.063 185.991 81.624 C 184.702 80.288,184.501 80.101,184.501 80.237 M197.947 81.531 L 197.401 82.135 198.005 81.589 C 198.567 81.081,198.693 80.928,198.550 80.928 C 198.518 80.928,198.246 81.200,197.947 81.531 M247.796 86.218 C 248.142 86.575,248.467 86.868,248.518 86.868 C 248.569 86.868,248.328 86.575,247.981 86.218 C 247.635 85.861,247.310 85.568,247.259 85.568 C 247.208 85.568,247.450 85.861,247.796 86.218 M178.190 88.782 C 178.190 88.814,178.462 89.085,178.794 89.385 L 179.397 89.930 178.852 89.327 C 178.343 88.765,178.190 88.639,178.190 88.782 M253.921 94.350 C 253.921 94.382,254.193 94.654,254.524 94.954 L 255.128 95.499 254.582 94.896 C 254.074 94.333,253.921 94.207,253.921 94.350 M194.234 96.566 L 193.689 97.169 194.292 96.624 C 194.855 96.116,194.981 95.963,194.838 95.963 C 194.806 95.963,194.534 96.234,194.234 96.566 M212.245 102.320 L 211.137 103.480 212.297 102.372 C 212.935 101.763,213.457 101.241,213.457 101.212 C 213.457 101.075,213.274 101.243,212.245 102.320 M159.361 103.585 C 159.763 104.051,160.130 104.403,160.177 104.367 C 160.223 104.332,159.893 103.951,159.444 103.520 L 158.629 102.738 159.361 103.585 M170.394 105.151 C 170.741 105.508,171.066 105.800,171.117 105.800 C 171.168 105.800,170.926 105.508,170.580 105.151 C 170.234 104.794,169.909 104.501,169.858 104.501 C 169.807 104.501,170.048 104.794,170.394 105.151 M247.691 105.476 L 247.146 106.079 247.749 105.534 C 248.312 105.026,248.438 104.872,248.295 104.872 C 248.263 104.872,247.991 105.144,247.691 105.476 M242.875 109.930 L 239.722 113.132 242.923 109.979 C 245.898 107.049,246.209 106.729,246.077 106.729 C 246.050 106.729,244.609 108.169,242.875 109.930 M166.497 113.098 C 166.497 113.129,166.768 113.401,167.100 113.701 L 167.703 114.246 167.158 113.643 C 166.650 113.080,166.497 112.954,166.497 113.098 M238.782 113.828 L 238.237 114.432 238.840 113.886 C 239.402 113.378,239.528 113.225,239.385 113.225 C 239.353 113.225,239.082 113.497,238.782 113.828 M233.502 119.118 L 228.956 123.712 233.550 119.166 C 237.819 114.942,238.228 114.524,238.096 114.524 C 238.070 114.524,236.002 116.592,233.502 119.118 M209.650 119.768 L 206.682 122.784 209.698 119.817 C 212.501 117.060,212.799 116.752,212.666 116.752 C 212.639 116.752,211.282 118.109,209.650 119.768 M175.220 123.007 C 175.220 123.252,175.270 123.273,175.443 123.100 C 175.613 122.930,179.124 122.888,190.339 122.922 L 205.012 122.966 190.255 123.063 L 175.499 123.159 190.417 123.204 C 203.660 123.243,205.310 123.217,205.104 122.970 C 204.727 122.515,175.220 122.552,175.220 123.007 M226.444 126.172 L 225.429 127.239 226.497 126.224 C 227.488 125.282,227.649 125.104,227.511 125.104 C 227.482 125.104,227.002 125.585,226.444 126.172 M215.215 137.030 L 213.921 138.376 215.267 137.082 C 216.517 135.879,216.697 135.684,216.561 135.684 C 216.533 135.684,215.927 136.290,215.215 137.030 M165.940 139.297 C 165.940 139.337,166.071 139.501,166.231 139.662 C 166.706 140.137,212.184 140.104,212.544 139.629 C 212.753 139.352,212.751 139.339,212.529 139.536 C 212.215 139.816,166.497 139.882,166.497 139.602 C 166.497 139.511,166.371 139.388,166.218 139.330 C 166.065 139.271,165.940 139.256,165.940 139.297 "
      stroke="#000000"
      fill="#000000"
      fill-rule="evenodd"
    /><path
      id="path3"
      d="M188.692 30.041 C 188.373 30.659,169.085 49.769,168.260 50.286 C 167.954 50.477,163.652 54.714,158.701 59.700 C 153.749 64.686,149.415 68.996,149.068 69.279 C 147.908 70.226,145.524 72.575,145.723 72.575 C 145.832 72.575,146.606 71.928,147.444 71.137 C 148.282 70.346,149.299 69.394,149.704 69.021 C 150.109 68.649,154.449 64.326,159.348 59.416 C 164.246 54.505,168.332 50.487,168.427 50.487 C 168.643 50.487,173.102 46.126,182.224 36.990 L 189.320 29.884 211.830 29.887 C 236.548 29.889,235.037 29.832,235.423 30.784 C 235.574 31.157,235.998 31.750,236.364 32.101 C 236.730 32.453,237.030 32.824,237.030 32.925 C 237.030 33.026,237.364 33.505,237.773 33.989 C 238.181 34.473,238.515 34.947,238.515 35.042 C 238.515 35.137,238.837 35.581,239.230 36.030 C 239.624 36.478,240.087 37.120,240.261 37.457 C 240.434 37.794,240.699 38.117,240.850 38.175 C 241.000 38.233,241.335 38.641,241.593 39.082 C 241.852 39.522,242.392 40.181,242.795 40.544 C 243.197 40.908,243.527 41.289,243.527 41.392 C 243.527 41.494,243.688 41.739,243.886 41.937 C 244.083 42.134,244.387 42.512,244.560 42.778 C 244.734 43.043,244.916 43.220,244.964 43.172 C 245.070 43.066,244.298 41.938,243.923 41.652 C 243.776 41.540,243.705 41.369,243.765 41.271 C 243.826 41.173,243.508 40.806,243.059 40.454 C 242.610 40.102,242.117 39.557,241.963 39.243 C 241.809 38.928,241.484 38.469,241.240 38.222 C 240.996 37.975,240.575 37.439,240.303 37.030 C 239.887 36.406,239.452 35.822,238.365 34.432 C 238.286 34.329,237.852 33.745,237.402 33.132 C 236.952 32.520,236.391 31.866,236.157 31.680 C 235.923 31.494,235.725 31.202,235.717 31.031 C 235.710 30.859,235.557 30.469,235.377 30.162 L 235.051 29.606 212.009 29.558 L 188.966 29.511 188.692 30.041 M245.012 43.559 C 245.012 43.654,245.304 44.016,245.661 44.362 C 246.019 44.708,246.311 45.102,246.311 45.238 C 246.311 45.373,246.635 45.837,247.031 46.269 C 247.426 46.700,247.907 47.311,248.098 47.626 C 248.466 48.233,249.113 49.057,250.255 50.375 C 250.638 50.817,250.951 51.262,250.951 51.364 C 250.951 51.465,251.285 51.928,251.694 52.392 C 252.102 52.856,252.436 53.322,252.436 53.428 C 252.436 53.534,252.854 54.056,253.364 54.589 C 253.875 55.121,254.292 55.611,254.292 55.678 C 254.292 55.896,255.910 57.541,256.124 57.541 C 256.502 57.541,256.344 57.212,255.915 57.104 C 255.471 56.993,254.849 56.115,254.849 55.598 C 254.849 55.430,254.766 55.343,254.664 55.406 C 254.561 55.469,254.478 55.432,254.478 55.324 C 254.478 55.216,254.387 55.128,254.276 55.128 C 254.018 55.128,253.517 54.552,252.699 53.318 C 252.344 52.782,251.992 52.343,251.916 52.343 C 251.840 52.343,251.630 52.067,251.448 51.730 C 251.266 51.393,250.788 50.745,250.385 50.292 C 249.982 49.838,249.652 49.375,249.652 49.263 C 249.652 49.151,249.473 48.901,249.254 48.706 C 249.035 48.512,248.584 47.935,248.252 47.425 C 247.920 46.914,247.389 46.251,247.073 45.951 C 246.756 45.652,246.493 45.317,246.489 45.209 C 246.479 44.962,245.012 43.323,245.012 43.559 M226.636 46.412 C 226.428 46.553,226.483 46.571,226.854 46.485 C 227.269 46.389,227.396 46.457,227.624 46.898 C 227.774 47.188,228.081 47.592,228.306 47.796 C 228.531 48.000,228.844 48.417,229.000 48.723 C 229.157 49.030,229.390 49.343,229.519 49.419 C 229.648 49.494,230.057 49.996,230.428 50.532 C 230.799 51.069,231.516 52.051,232.022 52.715 C 232.528 53.378,233.169 54.242,233.445 54.635 C 233.722 55.028,234.224 55.625,234.561 55.962 C 234.898 56.300,235.174 56.692,235.174 56.835 C 235.174 56.977,235.508 57.420,235.916 57.819 C 236.325 58.218,236.659 58.665,236.659 58.812 C 236.659 58.959,236.951 59.437,237.309 59.873 C 237.666 60.309,237.962 60.777,237.967 60.913 C 237.972 61.049,238.301 61.411,238.700 61.717 C 239.098 62.023,239.553 62.534,239.709 62.852 C 239.865 63.170,240.230 63.671,240.518 63.966 C 240.807 64.260,241.198 64.752,241.388 65.058 C 241.578 65.364,242.054 65.996,242.445 66.462 C 242.836 66.928,243.155 67.390,243.155 67.488 C 243.155 67.587,243.328 67.790,243.538 67.940 C 243.749 68.091,244.099 68.506,244.316 68.863 C 244.534 69.220,244.988 69.855,245.326 70.274 C 245.663 70.693,245.940 71.121,245.940 71.225 C 245.940 71.329,246.220 71.655,246.562 71.949 C 246.904 72.242,247.313 72.733,247.471 73.040 C 247.629 73.346,248.058 73.916,248.426 74.306 C 248.794 74.696,249.095 75.104,249.095 75.213 C 249.095 75.322,249.429 75.773,249.838 76.216 C 250.246 76.659,250.580 77.116,250.580 77.231 C 250.580 77.346,250.874 77.744,251.234 78.117 C 251.593 78.489,252.008 78.961,252.156 79.165 C 252.304 79.369,252.427 79.445,252.430 79.333 C 252.434 79.221,252.019 78.652,251.508 78.069 C 250.998 77.486,250.580 76.924,250.580 76.821 C 250.580 76.718,250.299 76.368,249.956 76.043 C 249.613 75.718,249.279 75.281,249.213 75.071 C 249.147 74.862,248.804 74.402,248.450 74.050 C 248.097 73.699,247.805 73.307,247.802 73.181 C 247.798 73.054,247.378 72.489,246.868 71.926 C 246.357 71.362,245.940 70.834,245.940 70.752 C 245.940 70.671,245.752 70.403,245.522 70.158 C 245.044 69.649,244.013 68.267,243.100 66.914 C 242.756 66.404,242.329 65.866,242.152 65.720 C 241.974 65.574,241.666 65.135,241.468 64.746 C 241.269 64.356,241.028 64.037,240.932 64.037 C 240.836 64.037,240.542 63.668,240.278 63.218 C 240.014 62.767,239.426 62.056,238.971 61.636 C 238.516 61.217,238.144 60.804,238.144 60.718 C 238.144 60.633,237.852 60.196,237.496 59.748 C 237.140 59.299,236.847 58.826,236.846 58.697 C 236.845 58.567,236.510 58.098,236.102 57.655 C 235.694 57.212,235.360 56.771,235.360 56.676 C 235.360 56.580,235.026 56.176,234.617 55.777 C 234.209 55.379,233.875 54.956,233.875 54.838 C 233.875 54.720,233.560 54.256,233.175 53.808 C 232.790 53.360,232.236 52.638,231.943 52.204 C 231.651 51.770,231.354 51.415,231.285 51.415 C 231.216 51.415,230.982 51.102,230.767 50.719 C 230.551 50.336,230.118 49.778,229.805 49.478 C 229.491 49.178,229.234 48.844,229.234 48.735 C 229.234 48.440,227.369 46.218,227.125 46.221 C 227.009 46.223,226.789 46.309,226.636 46.412 M194.239 47.368 C 193.280 48.373,193.613 48.248,194.659 47.210 C 194.989 46.883,195.448 46.580,195.680 46.535 C 196.076 46.459,196.073 46.453,195.631 46.429 C 195.288 46.411,194.911 46.665,194.239 47.368 M179.986 61.084 C 172.873 68.137,167.053 74.013,167.053 74.141 C 167.053 74.549,167.572 75.420,168.440 76.472 C 168.902 77.033,169.281 77.551,169.281 77.625 C 169.281 77.698,169.615 78.098,170.023 78.515 C 170.432 78.932,170.766 79.382,170.766 79.515 C 170.766 79.648,170.944 79.916,171.162 80.110 C 171.379 80.305,171.895 80.923,172.308 81.485 C 172.721 82.046,173.336 82.796,173.676 83.150 C 174.015 83.504,174.295 83.880,174.299 83.985 C 174.306 84.218,174.798 84.792,175.413 85.285 C 175.664 85.487,175.557 85.316,175.174 84.906 C 174.791 84.496,174.478 84.073,174.478 83.965 C 174.478 83.858,174.060 83.293,173.550 82.709 C 173.039 82.126,172.622 81.583,172.622 81.503 C 172.622 81.422,172.340 81.066,171.995 80.711 C 171.651 80.357,171.136 79.696,170.852 79.244 C 170.568 78.792,170.189 78.318,170.010 78.191 C 169.831 78.064,169.428 77.563,169.113 77.078 C 168.798 76.592,168.250 75.819,167.894 75.360 C 167.539 74.900,167.246 74.429,167.243 74.312 C 167.240 74.130,176.836 64.525,189.791 51.742 C 191.731 49.828,193.228 48.262,193.119 48.261 C 193.009 48.260,187.100 54.031,179.986 61.084 M218.933 55.423 C 218.622 55.661,217.952 55.697,214.812 55.649 C 212.632 55.616,211.234 55.657,211.471 55.749 C 211.696 55.835,214.589 55.877,217.901 55.842 L 223.922 55.777 224.549 56.613 C 224.893 57.072,225.366 57.657,225.599 57.912 C 225.831 58.167,226.153 58.626,226.314 58.933 C 226.474 59.239,226.946 59.820,227.363 60.223 C 227.780 60.627,228.121 61.097,228.121 61.268 C 228.121 61.439,228.442 61.861,228.834 62.205 C 229.227 62.549,229.679 63.081,229.839 63.387 C 230.000 63.694,230.430 64.232,230.796 64.584 C 231.162 64.936,231.462 65.334,231.462 65.470 C 231.462 65.605,231.781 66.069,232.170 66.501 C 232.560 66.932,233.078 67.578,233.320 67.935 C 233.563 68.292,234.038 68.875,234.375 69.229 C 234.712 69.583,234.988 69.938,234.988 70.017 C 234.988 70.097,235.277 70.481,235.631 70.872 C 236.260 71.568,236.937 72.479,238.208 74.339 C 238.556 74.849,239.022 75.428,239.241 75.626 C 239.461 75.823,239.814 76.266,240.026 76.609 C 240.238 76.952,240.695 77.533,241.041 77.900 C 241.387 78.267,241.671 78.638,241.671 78.725 C 241.671 78.811,242.088 79.344,242.599 79.907 C 243.109 80.471,243.527 81.033,243.527 81.156 C 243.527 81.279,243.720 81.550,243.957 81.757 C 244.193 81.965,244.726 82.594,245.140 83.155 C 245.555 83.717,246.132 84.385,246.422 84.640 C 246.798 84.971,246.871 84.998,246.677 84.733 C 246.526 84.529,246.257 84.252,246.078 84.119 C 245.899 83.985,245.616 83.609,245.450 83.283 C 245.284 82.958,244.783 82.298,244.338 81.818 C 243.892 81.337,243.527 80.833,243.527 80.696 C 243.527 80.560,243.151 80.080,242.691 79.629 C 242.232 79.178,241.856 78.711,241.856 78.592 C 241.856 78.472,241.543 78.036,241.160 77.623 C 240.210 76.597,240.000 76.330,240.000 76.146 C 240.000 76.060,239.701 75.701,239.335 75.350 C 238.968 74.998,238.539 74.459,238.379 74.153 C 238.220 73.847,237.768 73.230,237.374 72.781 C 236.981 72.333,236.659 71.884,236.659 71.782 C 236.659 71.681,236.377 71.333,236.033 71.008 C 235.688 70.683,235.355 70.253,235.291 70.053 C 235.227 69.852,234.757 69.250,234.246 68.714 C 233.736 68.179,233.318 67.674,233.318 67.592 C 233.318 67.510,232.942 67.033,232.483 66.533 C 232.023 66.032,231.647 65.513,231.647 65.379 C 231.647 65.246,231.313 64.818,230.905 64.430 C 230.497 64.041,230.162 63.634,230.162 63.524 C 230.162 63.414,229.745 62.868,229.234 62.309 C 228.724 61.751,228.306 61.198,228.306 61.080 C 228.306 60.963,227.976 60.534,227.572 60.126 C 227.168 59.718,226.652 59.053,226.424 58.648 C 226.197 58.243,225.945 57.912,225.866 57.912 C 225.787 57.912,225.392 57.432,224.990 56.845 C 223.823 55.144,223.787 55.127,221.390 55.134 C 219.811 55.138,219.214 55.208,218.933 55.423 M201.949 55.754 C 201.949 56.031,199.712 58.225,198.516 59.120 C 198.109 59.425,197.106 60.346,196.289 61.166 C 194.723 62.738,193.872 63.480,193.638 63.480 C 193.560 63.480,192.429 64.524,191.124 65.800 C 189.818 67.077,188.660 68.121,188.550 68.121 C 188.439 68.121,187.447 68.992,186.344 70.058 C 185.241 71.123,184.104 72.141,183.817 72.321 C 183.530 72.500,182.658 73.212,181.880 73.904 C 181.102 74.595,180.427 75.122,180.380 75.075 C 180.333 75.027,180.307 75.160,180.322 75.369 C 180.338 75.578,180.598 75.900,180.901 76.085 C 181.471 76.431,184.128 79.239,184.129 79.495 C 184.130 79.575,184.829 80.369,185.683 81.259 C 186.538 82.149,187.496 83.169,187.812 83.527 C 188.129 83.884,188.391 84.084,188.394 83.971 C 188.397 83.859,187.459 82.766,186.311 81.544 C 185.162 80.321,184.056 79.083,183.852 78.791 C 183.647 78.500,182.841 77.624,182.061 76.845 L 180.641 75.428 182.004 74.163 C 182.754 73.468,183.612 72.751,183.910 72.569 C 184.208 72.388,185.413 71.333,186.587 70.226 C 187.762 69.119,189.116 67.927,189.598 67.576 C 190.079 67.226,190.987 66.364,191.617 65.661 C 192.246 64.958,193.262 64.023,193.875 63.583 C 194.487 63.143,195.740 62.022,196.659 61.093 C 197.578 60.164,198.413 59.402,198.515 59.400 C 199.103 59.387,202.813 55.499,202.237 55.499 C 202.078 55.499,201.949 55.614,201.949 55.754 M208.594 71.699 C 208.377 71.779,207.983 72.061,207.719 72.328 C 207.455 72.594,206.821 73.126,206.311 73.511 C 205.800 73.896,204.675 74.928,203.809 75.806 C 202.944 76.683,202.142 77.401,202.028 77.401 C 201.913 77.401,200.718 78.445,199.372 79.722 C 198.026 80.998,196.834 82.042,196.724 82.042 C 196.613 82.042,195.695 82.877,194.683 83.898 C 193.671 84.919,192.777 85.754,192.695 85.754 C 192.614 85.754,192.351 85.963,192.111 86.218 C 191.571 86.793,191.070 86.808,190.539 86.265 C 189.677 85.382,188.338 84.193,188.594 84.538 C 190.034 86.476,191.404 87.187,192.187 86.404 C 192.443 86.148,192.724 85.940,192.814 85.940 C 192.903 85.940,193.721 85.184,194.632 84.259 C 195.543 83.335,196.580 82.402,196.937 82.186 C 197.295 81.969,198.340 81.056,199.261 80.156 C 200.181 79.256,201.476 78.109,202.138 77.607 C 202.800 77.104,204.001 76.017,204.807 75.191 C 205.613 74.365,206.347 73.689,206.439 73.689 C 206.530 73.689,207.025 73.296,207.538 72.816 L 208.471 71.944 209.943 71.994 C 210.895 72.026,211.415 71.974,211.415 71.846 C 211.415 71.320,215.864 71.611,216.395 72.171 C 217.568 73.410,218.469 74.522,218.469 74.731 C 218.469 74.855,218.758 75.255,219.112 75.619 C 219.466 75.983,219.895 76.494,220.065 76.754 C 220.236 77.015,220.417 77.185,220.469 77.134 C 220.591 77.012,219.622 75.735,219.078 75.300 C 218.845 75.114,218.654 74.845,218.654 74.703 C 218.654 74.560,218.276 74.003,217.813 73.463 C 217.351 72.924,216.767 72.243,216.515 71.950 L 216.058 71.418 212.524 71.486 C 210.580 71.524,208.812 71.620,208.594 71.699 M145.522 73.311 C 145.522 73.417,145.608 73.503,145.713 73.503 C 145.957 73.503,147.005 74.670,147.408 75.391 C 147.577 75.693,148.058 76.286,148.475 76.708 C 148.893 77.130,149.234 77.567,149.234 77.680 C 149.234 77.793,149.532 78.173,149.896 78.525 C 150.260 78.877,150.739 79.457,150.960 79.814 C 151.341 80.430,151.827 81.054,152.343 81.589 C 152.471 81.721,152.576 81.898,152.577 81.982 C 152.578 82.066,152.995 82.580,153.505 83.124 C 154.015 83.667,154.432 84.218,154.432 84.348 C 154.432 84.477,154.608 84.742,154.824 84.936 C 155.040 85.131,155.474 85.666,155.788 86.125 C 156.102 86.585,156.639 87.245,156.983 87.592 C 157.326 87.940,157.726 88.454,157.871 88.734 C 158.016 89.015,158.429 89.557,158.789 89.938 C 159.149 90.320,159.443 90.701,159.443 90.785 C 159.443 90.870,159.817 91.360,160.275 91.875 C 160.732 92.390,161.233 93.056,161.387 93.355 C 161.542 93.654,161.822 94.008,162.009 94.142 C 162.197 94.276,162.506 94.636,162.697 94.942 C 162.887 95.248,163.424 95.921,163.888 96.436 C 164.353 96.951,164.878 97.619,165.056 97.921 C 165.459 98.605,166.485 99.932,167.282 100.800 C 167.616 101.163,168.009 101.688,168.156 101.967 C 168.303 102.246,168.741 102.819,169.130 103.240 C 169.519 103.661,169.838 104.101,169.838 104.217 C 169.838 104.333,170.137 104.716,170.503 105.068 C 170.869 105.420,171.298 105.958,171.456 106.265 C 171.613 106.571,172.087 107.211,172.507 107.687 C 174.143 109.538,174.849 110.414,174.849 110.589 C 174.849 110.690,175.213 111.178,175.658 111.674 C 176.476 112.586,177.316 114.009,177.163 114.225 C 177.117 114.289,177.167 114.269,177.274 114.181 C 177.553 113.951,176.861 112.702,175.858 111.624 C 175.405 111.138,175.035 110.647,175.035 110.533 C 175.035 110.419,174.799 110.080,174.511 109.780 C 174.223 109.480,173.731 108.858,173.416 108.399 C 173.102 107.940,172.586 107.318,172.269 107.019 C 171.953 106.719,171.694 106.377,171.694 106.259 C 171.694 106.064,171.039 105.230,169.223 103.109 C 168.874 102.701,168.459 102.116,168.302 101.810 C 168.145 101.503,167.791 101.044,167.515 100.789 C 167.239 100.534,166.730 99.907,166.385 99.397 C 165.469 98.043,164.722 97.070,164.036 96.334 C 163.702 95.977,163.190 95.329,162.896 94.896 C 162.603 94.462,162.306 94.107,162.236 94.107 C 162.167 94.107,161.919 93.767,161.686 93.352 C 161.453 92.937,160.915 92.230,160.492 91.781 C 159.691 90.932,158.887 89.872,158.216 88.779 C 158.000 88.428,157.491 87.792,157.084 87.365 C 156.678 86.938,156.158 86.276,155.930 85.893 C 155.702 85.510,155.368 85.093,155.188 84.965 C 155.009 84.838,154.761 84.544,154.639 84.313 C 154.516 84.081,154.064 83.482,153.635 82.981 C 152.856 82.072,152.073 81.028,151.369 79.961 C 151.165 79.651,150.643 79.002,150.209 78.519 C 149.775 78.036,149.420 77.562,149.420 77.465 C 149.420 77.368,149.122 77.001,148.758 76.649 C 148.394 76.297,147.921 75.717,147.708 75.360 C 147.007 74.186,145.522 72.795,145.522 73.311 M221.122 78.105 C 221.500 78.492,221.810 78.903,221.810 79.018 C 221.810 79.132,222.186 79.630,222.647 80.124 C 223.107 80.617,223.535 81.188,223.599 81.392 C 223.662 81.596,224.038 82.073,224.433 82.452 C 224.828 82.831,225.151 83.231,225.151 83.342 C 225.151 83.452,225.516 83.936,225.962 84.416 C 226.408 84.897,226.902 85.541,227.060 85.847 C 227.217 86.153,227.646 86.692,228.012 87.043 C 228.378 87.395,228.677 87.773,228.677 87.882 C 228.677 87.991,229.032 88.466,229.466 88.937 C 229.900 89.408,230.422 90.046,230.626 90.354 C 231.443 91.588,232.329 92.745,232.930 93.363 C 233.746 94.202,234.244 95.023,234.245 95.529 C 234.246 95.916,221.544 108.592,220.697 109.049 C 220.272 109.278,218.602 110.915,211.508 118.057 C 208.445 121.140,206.107 123.575,206.311 123.468 C 206.515 123.360,209.853 120.093,213.728 116.207 C 217.603 112.321,220.838 109.142,220.917 109.142 C 221.238 109.142,234.331 96.202,234.498 95.719 C 234.652 95.275,234.199 94.430,233.245 93.381 C 232.819 92.913,232.232 92.174,231.941 91.740 C 231.649 91.306,231.354 90.951,231.285 90.951 C 231.216 90.951,230.982 90.638,230.766 90.255 C 230.549 89.872,230.033 89.229,229.618 88.825 C 229.203 88.422,228.863 87.958,228.863 87.795 C 228.863 87.631,228.564 87.210,228.198 86.858 C 227.832 86.506,227.403 85.968,227.245 85.661 C 227.086 85.355,226.634 84.795,226.240 84.416 C 225.845 84.037,225.522 83.606,225.522 83.457 C 225.522 83.308,225.184 82.866,224.770 82.475 C 224.357 82.084,223.822 81.429,223.580 81.021 C 223.339 80.613,222.884 80.033,222.569 79.733 C 222.253 79.433,221.995 79.086,221.995 78.960 C 221.995 78.716,220.792 77.401,220.569 77.401 C 220.495 77.401,220.744 77.718,221.122 78.105 M252.436 79.686 C 252.436 79.756,252.729 80.123,253.086 80.502 C 253.443 80.881,253.735 81.284,253.735 81.398 C 253.735 81.512,253.946 81.804,254.203 82.045 C 254.460 82.287,254.928 82.886,255.243 83.377 C 255.729 84.133,256.433 84.720,256.035 84.037 C 255.800 83.633,254.790 82.333,254.444 81.990 C 254.261 81.808,253.992 81.432,253.847 81.155 C 253.579 80.643,252.436 79.453,252.436 79.686 M209.855 82.318 C 209.746 82.752,208.566 83.997,206.961 85.372 C 206.603 85.678,206.394 85.931,206.497 85.933 C 206.599 85.935,207.516 85.176,208.536 84.245 L 210.390 82.553 211.672 83.921 C 212.377 84.673,213.141 85.581,213.369 85.939 C 213.598 86.297,214.526 87.374,215.431 88.333 C 216.336 89.292,217.193 90.252,217.335 90.467 C 217.852 91.251,220.603 93.921,220.878 93.906 C 221.119 93.894,221.121 93.876,220.888 93.785 C 220.512 93.637,217.726 90.832,217.726 90.601 C 217.726 90.498,216.766 89.392,215.592 88.143 C 214.418 86.895,213.457 85.793,213.457 85.696 C 213.457 85.598,213.248 85.325,212.993 85.088 C 212.738 84.852,212.529 84.607,212.529 84.545 C 212.529 84.021,209.964 81.884,209.855 82.318 M144.963 98.360 C 145.013 105.566,145.076 109.374,145.102 106.821 C 145.247 92.841,145.232 85.259,145.058 85.259 C 144.935 85.259,144.903 89.689,144.963 98.360 M145.523 85.386 C 145.525 85.855,146.035 86.669,146.652 87.189 C 146.977 87.462,147.350 87.940,147.481 88.251 C 147.612 88.562,147.976 89.062,148.291 89.362 C 148.606 89.662,148.863 90.020,148.863 90.159 C 148.863 90.297,149.239 90.812,149.698 91.303 C 150.158 91.794,150.534 92.262,150.534 92.343 C 150.534 92.424,150.889 92.886,151.323 93.370 C 152.023 94.150,152.870 95.271,153.410 96.132 C 153.512 96.294,153.894 96.803,154.260 97.262 C 154.626 97.722,155.085 98.346,155.282 98.650 C 155.478 98.954,155.910 99.483,156.241 99.826 C 156.573 100.169,156.845 100.551,156.845 100.674 C 156.845 100.798,157.179 101.225,157.587 101.624 C 157.995 102.023,158.329 102.442,158.329 102.555 C 158.329 102.668,158.705 103.200,159.165 103.739 C 159.624 104.277,160.000 104.798,160.000 104.896 C 160.000 104.995,160.194 105.260,160.431 105.485 C 160.888 105.918,162.207 107.625,162.952 108.748 C 163.197 109.117,163.586 109.596,163.816 109.812 C 164.045 110.028,164.362 110.445,164.519 110.740 C 164.675 111.035,165.101 111.605,165.465 112.006 C 165.828 112.407,166.129 112.825,166.134 112.934 C 166.138 113.043,166.514 113.508,166.967 113.968 C 167.421 114.427,167.793 114.900,167.794 115.019 C 167.795 115.138,168.130 115.594,168.538 116.032 C 168.947 116.470,169.283 116.915,169.286 117.022 C 169.288 117.129,169.623 117.578,170.028 118.021 C 170.434 118.463,170.766 118.929,170.766 119.055 C 170.766 119.182,170.983 119.488,171.249 119.736 C 171.515 119.983,171.991 120.561,172.306 121.021 C 173.294 122.462,174.175 123.435,174.471 123.412 C 174.687 123.396,174.677 123.370,174.432 123.306 C 174.253 123.259,174.107 123.149,174.107 123.060 C 174.107 122.972,173.773 122.514,173.364 122.042 C 172.956 121.570,172.622 121.113,172.622 121.026 C 172.622 120.938,172.330 120.566,171.973 120.199 C 171.616 119.831,171.122 119.218,170.875 118.837 C 170.629 118.456,170.211 117.918,169.947 117.642 C 169.682 117.365,169.466 117.050,169.466 116.941 C 169.466 116.832,169.132 116.381,168.724 115.938 C 168.316 115.495,167.981 115.044,167.981 114.937 C 167.981 114.829,167.605 114.337,167.145 113.844 C 166.684 113.350,166.259 112.794,166.200 112.608 C 166.140 112.421,165.807 111.976,165.459 111.617 C 165.111 111.259,164.826 110.892,164.826 110.802 C 164.826 110.712,164.471 110.229,164.037 109.729 C 162.995 108.527,162.213 107.519,161.787 106.828 C 161.596 106.518,161.115 105.911,160.720 105.480 C 160.324 105.048,160.000 104.584,160.000 104.449 C 160.000 104.314,159.708 103.919,159.350 103.573 C 158.993 103.227,158.701 102.850,158.701 102.737 C 158.701 102.623,158.325 102.090,157.865 101.551 C 157.406 101.013,157.030 100.516,157.030 100.446 C 157.030 100.376,156.675 99.939,156.241 99.474 C 155.807 99.010,155.307 98.385,155.130 98.085 C 154.952 97.786,154.517 97.165,154.161 96.705 C 153.806 96.246,153.241 95.510,152.906 95.069 C 152.571 94.628,151.942 93.868,151.508 93.379 C 151.074 92.890,150.719 92.383,150.719 92.251 C 150.719 92.119,150.343 91.609,149.884 91.118 C 149.425 90.627,149.049 90.133,149.049 90.021 C 149.049 89.908,148.808 89.592,148.514 89.317 C 148.219 89.042,147.843 88.550,147.679 88.223 C 147.514 87.897,147.135 87.395,146.838 87.109 C 146.540 86.823,146.122 86.256,145.909 85.850 C 145.696 85.443,145.523 85.234,145.523 85.386 M246.868 85.435 C 246.868 85.572,247.128 85.930,247.446 86.230 C 247.763 86.530,248.219 87.081,248.459 87.455 C 248.698 87.829,249.232 88.490,249.644 88.924 C 250.057 89.358,250.394 89.807,250.394 89.923 C 250.394 90.039,250.729 90.482,251.137 90.907 C 251.545 91.332,251.881 91.745,251.884 91.826 C 251.887 91.906,252.304 92.472,252.812 93.082 C 253.320 93.693,253.736 94.278,253.736 94.382 C 253.736 94.486,254.091 94.904,254.525 95.311 C 256.113 96.800,256.368 96.322,251.181 101.570 C 248.656 104.125,246.292 106.405,245.929 106.637 C 245.566 106.869,239.204 113.091,231.791 120.464 C 224.378 127.837,218.077 134.016,217.788 134.195 C 217.499 134.373,216.384 135.431,215.311 136.546 C 214.237 137.660,213.154 138.716,212.903 138.892 C 212.172 139.403,166.525 139.384,166.061 138.872 C 165.892 138.685,165.754 138.433,165.754 138.311 C 165.754 138.189,165.420 137.727,165.012 137.284 C 164.603 136.841,164.269 136.402,164.269 136.309 C 164.269 136.216,163.893 135.731,163.434 135.231 C 162.974 134.730,162.599 134.226,162.599 134.109 C 162.599 133.993,162.339 133.652,162.021 133.353 C 161.703 133.053,161.235 132.483,160.982 132.086 C 160.728 131.690,160.358 131.189,160.160 130.973 C 159.687 130.458,158.707 129.121,158.221 128.326 C 158.008 127.979,157.622 127.467,157.362 127.188 C 157.102 126.910,156.680 126.348,156.424 125.940 C 156.168 125.531,155.699 124.952,155.381 124.652 C 155.063 124.352,154.803 124.014,154.803 123.901 C 154.803 123.788,154.469 123.369,154.060 122.970 C 153.652 122.571,153.318 122.135,153.318 122.000 C 153.318 121.865,152.984 121.393,152.575 120.950 C 152.167 120.507,151.833 120.052,151.833 119.939 C 151.833 119.826,151.461 119.315,151.006 118.803 C 150.551 118.290,150.078 117.682,149.955 117.451 C 149.833 117.219,149.577 116.920,149.388 116.786 C 149.199 116.652,148.885 116.234,148.692 115.858 C 148.499 115.482,148.082 114.929,147.766 114.629 C 147.451 114.329,147.193 113.995,147.192 113.886 C 147.192 113.778,146.900 113.361,146.544 112.960 C 146.187 112.560,145.779 112.059,145.636 111.847 C 145.494 111.635,145.321 111.515,145.253 111.581 C 145.185 111.647,145.467 112.064,145.880 112.509 C 146.293 112.954,146.752 113.570,146.900 113.877 C 147.048 114.185,147.391 114.645,147.662 114.898 C 147.934 115.152,148.365 115.715,148.620 116.148 C 148.875 116.582,149.161 116.937,149.254 116.937 C 149.348 116.937,149.707 117.376,150.052 117.912 C 150.396 118.448,150.896 119.089,151.163 119.336 C 151.429 119.584,151.647 119.886,151.647 120.009 C 151.647 120.131,151.981 120.597,152.390 121.044 C 152.798 121.490,153.134 121.940,153.137 122.042 C 153.140 122.144,153.474 122.590,153.880 123.032 C 154.285 123.475,154.617 123.938,154.617 124.061 C 154.617 124.184,154.993 124.654,155.452 125.104 C 155.912 125.555,156.289 126.011,156.291 126.118 C 156.293 126.224,156.591 126.645,156.953 127.053 C 157.315 127.462,157.743 128.046,157.905 128.353 C 158.067 128.659,158.346 129.013,158.526 129.140 C 158.706 129.267,159.114 129.769,159.434 130.254 C 160.218 131.446,161.303 132.922,161.800 133.471 C 162.205 133.919,162.556 134.382,163.619 135.872 C 163.926 136.301,164.490 137.007,164.872 137.442 C 165.255 137.876,165.568 138.312,165.568 138.410 C 165.568 138.507,165.806 138.853,166.095 139.178 L 166.622 139.768 189.293 139.768 C 211.300 139.768,211.980 139.758,212.548 139.413 C 213.350 138.924,216.361 136.018,228.821 123.702 C 234.714 117.877,241.108 111.613,243.030 109.781 C 244.951 107.949,248.592 104.383,251.120 101.856 C 253.649 99.329,255.856 97.262,256.026 97.262 C 256.410 97.262,256.433 96.783,256.056 96.638 C 255.903 96.579,255.777 96.362,255.777 96.154 C 255.777 95.947,255.697 95.777,255.598 95.777 C 255.302 95.777,254.107 94.645,253.823 94.097 C 253.678 93.815,253.449 93.473,253.315 93.335 C 253.182 93.198,252.830 92.752,252.533 92.343 C 252.237 91.935,251.765 91.350,251.486 91.044 C 251.207 90.738,250.701 90.097,250.361 89.620 C 248.409 86.874,246.868 85.027,246.868 85.435 M175.777 85.861 C 175.777 85.966,176.195 86.520,176.705 87.092 C 177.216 87.665,177.633 88.222,177.633 88.330 C 177.633 88.438,177.988 88.940,178.422 89.447 C 180.078 91.380,180.556 91.990,180.838 92.529 C 180.998 92.835,181.470 93.416,181.887 93.820 C 182.304 94.223,182.645 94.659,182.645 94.788 C 182.645 94.917,183.000 95.432,183.434 95.932 C 183.868 96.433,184.456 97.145,184.741 97.516 L 185.259 98.190 188.582 98.190 C 190.662 98.190,191.948 98.119,192.022 97.999 C 192.088 97.892,192.402 97.857,192.735 97.919 C 193.288 98.023,193.435 97.924,194.809 96.523 C 195.622 95.693,196.516 94.892,196.796 94.743 C 197.075 94.593,198.261 93.554,199.430 92.433 C 200.600 91.312,201.636 90.394,201.733 90.394 C 201.919 90.394,204.808 87.600,205.756 86.504 C 206.639 85.481,205.716 86.273,204.250 87.796 C 203.513 88.561,202.556 89.439,202.124 89.745 C 201.692 90.051,200.578 91.023,199.648 91.905 C 197.624 93.825,196.658 94.664,196.471 94.664 C 196.395 94.664,195.633 95.374,194.776 96.241 C 193.185 97.855,192.820 98.058,192.510 97.503 C 192.377 97.265,192.271 97.237,192.083 97.390 C 191.930 97.514,190.509 97.618,188.415 97.659 L 184.998 97.726 184.641 97.077 C 184.444 96.719,183.957 96.090,183.557 95.677 C 183.158 95.265,182.831 94.823,182.831 94.695 C 182.831 94.567,182.468 94.069,182.025 93.588 C 181.582 93.108,181.063 92.443,180.871 92.111 C 180.680 91.780,180.466 91.508,180.396 91.508 C 180.326 91.508,179.976 91.070,179.619 90.534 C 179.262 89.998,178.745 89.350,178.471 89.095 C 178.197 88.840,177.858 88.381,177.718 88.074 C 177.435 87.453,175.777 85.563,175.777 85.861 M220.385 94.904 C 220.097 95.138,219.610 95.487,219.304 95.679 C 218.998 95.871,217.851 96.903,216.757 97.972 C 215.662 99.040,214.534 100.057,214.251 100.231 C 213.967 100.406,212.983 101.260,212.064 102.129 C 211.145 102.999,209.976 104.027,209.466 104.414 C 208.956 104.801,207.783 105.877,206.860 106.805 C 205.937 107.733,204.782 108.778,204.293 109.128 C 203.804 109.478,202.764 110.396,201.981 111.168 C 200.297 112.827,199.170 113.596,198.422 113.596 C 198.068 113.596,197.809 113.726,197.680 113.968 C 196.944 115.343,200.005 113.495,202.304 111.177 C 203.078 110.396,204.214 109.378,204.828 108.916 C 205.441 108.453,206.486 107.516,207.148 106.833 C 207.811 106.149,208.812 105.242,209.374 104.816 C 209.935 104.390,211.304 103.185,212.415 102.137 C 213.526 101.089,214.503 100.232,214.586 100.232 C 214.669 100.232,215.515 99.459,216.467 98.515 C 217.419 97.571,218.697 96.422,219.307 95.963 C 220.577 95.007,221.188 94.478,221.024 94.478 C 220.961 94.478,220.674 94.669,220.385 94.904 "
      stroke="#000000"
      fill="#000000"
      fill-rule="evenodd"
    /><path
      id="path4"
      d="M245.383 43.863 C 245.383 43.895,245.654 44.167,245.986 44.466 L 246.589 45.012 246.044 44.408 C 245.536 43.846,245.383 43.720,245.383 43.863 M214.626 55.637 C 215.422 55.672,216.674 55.672,217.410 55.636 C 218.145 55.601,217.494 55.573,215.963 55.573 C 214.432 55.573,213.830 55.602,214.626 55.637 M195.817 61.578 L 194.803 62.645 195.870 61.630 C 196.862 60.688,197.022 60.510,196.885 60.510 C 196.856 60.510,196.375 60.991,195.817 61.578 M150.434 67.981 L 149.513 68.956 150.487 68.035 C 151.393 67.179,151.547 67.007,151.408 67.007 C 151.379 67.007,150.940 67.445,150.434 67.981 M209.979 72.152 C 210.261 72.194,210.679 72.193,210.907 72.149 C 211.136 72.105,210.905 72.070,210.394 72.072 C 209.884 72.073,209.697 72.109,209.979 72.152 M253.735 81.729 C 253.735 81.761,254.007 82.032,254.339 82.332 L 254.942 82.877 254.397 82.274 C 253.889 81.711,253.735 81.585,253.735 81.729 M144.780 98.917 C 144.833 106.114,144.945 111.590,145.041 111.678 C 145.140 111.769,145.159 111.693,145.088 111.493 C 145.020 111.306,144.965 105.563,144.965 98.732 C 144.965 91.900,144.903 86.311,144.826 86.311 C 144.749 86.311,144.729 91.984,144.780 98.917 M186.308 97.494 C 186.238 97.675,186.838 97.714,189.026 97.670 C 192.837 97.594,193.053 97.262,189.291 97.262 C 187.147 97.262,186.374 97.322,186.308 97.494 M254.664 98.283 C 254.213 98.742,253.886 99.118,253.937 99.118 C 253.988 99.118,254.398 98.742,254.849 98.283 C 255.300 97.824,255.627 97.448,255.576 97.448 C 255.525 97.448,255.114 97.824,254.664 98.283 M175.527 123.016 C 175.449 123.142,185.917 123.141,199.722 123.013 C 202.631 122.986,198.397 122.944,190.313 122.920 C 182.228 122.897,175.575 122.940,175.527 123.016 "
      stroke="#000000"
      fill="#000000"
      fill-rule="evenodd"
    /></g></svg>
