<?xml version="1.0" standalone="no"?>
<!DOCTYPE svg PUBLIC "-//W3C//DTD SVG 20010904//EN"
 "http://www.w3.org/TR/2001/REC-SVG-20010904/DTD/svg10.dtd">
<svg version="1.0" xmlns="http://www.w3.org/2000/svg"
 width="862.000000pt" height="400.000000pt" viewBox="0 0 862.000000 400.000000"
 preserveAspectRatio="xMidYMid meet">
<metadata>
Created by potrace 1.16, written by Peter Selinger 2001-2019
</metadata>
<g transform="translate(0.000000,400.000000) scale(0.100000,-0.100000)"
fill="#000000" stroke="#ffffff">
<path d="M3912 2704 c-166 -163 -302 -301 -302 -308 1 -16 58 -81 66 -74 3 4
-6 22 -21 42 l-26 35 298 294 c164 162 295 298 292 301 -3 3 -141 -128 -307
-290z"/>
<path d="M4830 2810 c0 -5 5 -10 10 -10 6 0 10 -4 10 -10 0 -5 82 -115 183
-244 100 -128 191 -246 202 -262 11 -15 29 -38 40 -50 11 -12 27 -32 35 -44 8
-13 23 -32 33 -44 9 -11 38 -49 63 -83 25 -35 50 -63 55 -63 5 0 9 -6 9 -13 0
-8 9 -22 20 -32 11 -10 20 -15 20 -11 0 9 -66 102 -107 151 -78 94 -443 565
-443 572 0 5 -22 32 -50 62 -27 29 -52 61 -55 72 -7 20 -25 27 -25 9z"/>
<path d="M3136 2398 c4 -7 81 -106 171 -220 90 -114 163 -212 163 -218 0 -5 3
-10 8 -10 8 0 102 -114 102 -125 0 -6 65 -90 85 -110 6 -5 37 -45 69 -88 59
-78 76 -96 76 -79 0 6 -21 36 -47 69 -26 32 -51 63 -55 68 -4 6 -101 130 -215
276 -115 146 -217 278 -228 294 -11 15 -28 36 -37 47 -10 10 -18 22 -18 28 0
5 -6 13 -13 17 -7 4 -20 20 -30 36 -17 26 -46 40 -31 15z"/>
<path d="M4993 1989 l34 -41 -194 -192 c-106 -105 -243 -238 -303 -296 -60
-58 -105 -107 -99 -109 6 -2 77 62 158 141 80 79 216 212 301 296 138 135 154
154 142 169 -7 10 -20 30 -30 45 -9 16 -23 28 -30 28 -8 0 1 -17 21 -41z"/>
<path d="M5405 1792 c-466 -455 -816 -804 -811 -809 6 -6 103 88 550 532 139
138 280 275 314 307 34 31 62 61 62 67 0 6 -1 11 -2 11 -2 0 -52 -49 -113
-108z"/>
</g>
</svg>
